<svg width="130" height="82" viewBox="0 0 93 60" fill="none" xmlns="http://www.w3.org/2000/svg">
    <path d="M42.2 13.1C42.3 12.9 42.3 12.8 42.4 12.6C42.2 12.8 42.2 12.9 42.2 13.1Z" fill="white"/>
    <path d="M42.6 9.2C42.7 8 42.7 6.8 42.5 5.7C42.6 6.9 42.6 8 42.6 9.2Z" fill="white"/>
    <path d="M38.9 14C39.7 13.5 40.5 13.1 41.1 12.4C40.4 12.9 39.6 13.4 38.9 14C38.9 13.9 38.9 13.9 38.9 14Z" fill="white"/>
    <path d="M54.7 9C53.9 9.1 53 9.3 52.1 9.4C51.2 9.5 50.3 9.5 49.5 9.6C50.5 9.9 53.9 9.5 54.7 9Z" fill="white"/>
    <path d="M53.5 2.7C52.5 3 48.9 6.2 48.4 7.4C50 5.7 51.6 4.1 53.5 2.7Z" fill="white"/>
    <path d="M47.4 11.5C47.5 11.9 47.6 12.3 47.9 12.6C47.7 12.3 47.6 11.9 47.4 11.5Z" fill="white"/>
    <path d="M37.6 11.4C37.1 11.4 36.7 11.4 36.2 11.4C37 11.6 39.2 11.5 40.3 11.1C39.8 11.2 39.4 11.2 38.9 11.3C38.5 11.4 38.1 11.4 37.6 11.4Z" fill="white"/>
    <path d="M52.1 12.7C50.9 12.2 49.8 11.7 48.7 11.2C49.7 11.9 50.9 12.3 52.1 12.7Z" fill="white"/>
    <path d="M46.3 7.8C46 6.3 45.7 4.8 45.5 3.3C45.5 4.8 45.8 6.3 46.3 7.8Z" fill="white"/>
    <path d="M36.4 6.39999C37.1 6.79999 37.9 7.29999 38.7 7.69999C39.5 8.19999 40.2 8.69999 41 9.19999C40 8.19999 37.1 6.39999 36.4 6.39999Z" fill="white"/>
    <path d="M60.5 21.9C59 23.1 57.7 24.5 56.1 25.6C53.3 27.7 49.8 28.9 46.3 28.9C48 29.9 50.1 30.2 52.1 30C55.3 29.7 58.3 28.1 60.7 26C61.9 24.9 63.1 23.9 64.5 23.1C67.8 21.1 72 20.7 75.7 21.8C76.2 21.9 76.6 22 77.1 22.1C75.2 20.5 72.9 19.3 70.5 19C67 18.6 63.3 19.8 60.5 21.9Z" fill="white"/>
    <path d="M34.5 26.4C32.9 25.3 31.7 23.8 30.1 22.7C27.3 20.5 23.7 19.3 20.1 19.8C17.6 20.1 15.3 21.2 13.5 22.9C14 22.8 14.4 22.8 14.9 22.6C18.6 21.5 22.8 21.9 26.1 23.9C27.5 24.7 28.7 25.7 29.9 26.8C32.3 28.9 35.3 30.5 38.5 30.8C40.5 31 42.5 30.7 44.3 29.7C40.7 29.7 37.3 28.4 34.5 26.4Z" fill="white"/>
    <path d="M64.6 15.3C64.7 15.3 64.8 15.3 65 15.3C65.2 15 65.3 14.8 65.5 14.5C65.1 14.8 64.7 15 64.4 15.3C64.4 15.3 64.5 15.3 64.6 15.3Z" fill="white"/>
    <path d="M62.8 10.5C62.8 11.5 62.9 12.5 62.9 13.5C62.4 12.5 61.9 11.5 61 10.9C61.6 11.9 62.2 12.8 62.5 13.9C61.9 13.4 61.3 12.8 60.6 12.4C61.2 13.1 61.8 13.7 62.2 14.6C61.8 14.3 61.3 14 60.8 13.7C61.1 14 61.4 14.4 61.6 14.7C61.8 14.9 61.9 15.1 62 15.4C61.7 15.2 61.5 15 61.2 14.8C60.9 14.6 60.7 14.4 60.4 14.2C60.6 14.4 60.7 14.6 60.9 14.9C61.1 15.2 61.3 15.4 61.5 15.7C61.6 15.7 61.7 15.7 61.7 15.7C62.4 15.6 63.1 15.5 63.9 15.5C64 15.5 64.1 15.5 64.2 15.5C64.6 15 65.2 13.6 65.6 13.1L67.2 14.9L65.6 12.6C64.8 13 64.3 13.6 63.7 14.2C64 13.1 64.6 12.2 65.2 11.2C64.5 11.6 64.1 12.2 63.7 12.9C63.5 13.2 63.4 13.5 63.2 13.7C63.2 12.5 63.2 11.5 62.8 10.5Z" fill="white"/>
    <path d="M24 15.3C24.1 15.3 24.3 15.3 24.5 15.3C24.2 15.1 23.8 14.8 23.5 14.6C23.7 14.9 23.8 15.1 24 15.3Z" fill="white"/>
    <path d="M28.3 14.5C28.4 14.4 28.4 14.3 28.5 14.2C28.4 14.3 28.3 14.4 28.1 14.5C27.7 14.8 27.3 15.1 26.9 15.5C27 15.3 27.2 15 27.3 14.8C27.6 14.4 27.9 14.1 28.1 13.8C27.8 14 27.4 14.2 27.1 14.5C27 14.6 26.8 14.7 26.7 14.8C26.8 14.6 26.9 14.4 27 14.3C27.4 13.7 27.9 13.2 28.3 12.7C27.8 13 27.3 13.4 26.9 13.8C26.7 13.9 26.6 14.1 26.4 14.2C26.5 13.9 26.6 13.6 26.7 13.2C27 12.5 27.5 11.9 27.8 11.2C27.3 11.6 26.9 12.1 26.5 12.6C26.3 13 26.1 13.4 25.8 13.8C25.8 12.8 25.9 11.8 25.9 10.8C25.5 11.7 25.4 12.8 25.3 13.8C24.8 12.9 24.3 11.9 23.4 11.3C24 12.3 24.6 13.2 24.9 14.3C24.5 13.5 24 12.9 23.3 12.5L21.7 14.8L23.3 13C23.7 13.5 24.3 14.7 24.6 15.3C25.3 15.3 26.4 15.4 27.5 15.6C27.8 15.2 28 14.9 28.3 14.5Z" fill="white"/>
    <path d="M59.3 19.8C61 18.8 63 18.2 64.9 17.9C69.4 17.3 74 18.4 78.1 20.4C77.1 19.4 75.9 18.8 74.7 18.1C71.8 16.5 68.4 15.5 65.1 15.4H65C64.9 15.4 64.8 15.4 64.6 15.4C64.5 15.4 64.4 15.4 64.3 15.4C64.2 15.4 64.1 15.4 64 15.4C63.3 15.4 62.5 15.5 61.8 15.6C61.7 15.6 61.6 15.6 61.6 15.6H61.5C59.3 15.9 57.3 16.8 55.4 17.8C55.7 17.8 56 17.9 56.3 17.9C56.4 17.9 56.4 17.9 56.4 18V18.1C56.2 18.1 56 18.2 55.8 18.2C55.4 18.2 55.1 18.2 54.7 18.2C54.4 18.4 54.1 18.5 53.8 18.7L53.7 18.8C53.9 18.8 54 18.9 54.2 18.9C54.2 18.9 54.3 18.9 54.3 19V19.1C54.2 19.1 54.1 19.2 54 19.2C53.7 19.2 53.4 19.2 53.1 19.2L51.1 20.1L49 19.9C49.1 19.9 49.1 19.9 49.2 19.9C49.7 19.9 50.2 19.8 50.6 19.8C50.5 19.7 50.4 19.5 50.2 19.5C49.7 19.5 49.3 19.5 48.8 19.4C48.3 19.4 47.9 19.3 47.4 19.3H47.3C47.7 19.2 48.2 19.2 48.7 19.2C49.2 19.2 49.6 19.2 50.1 19.2C50.6 19.2 51 19.2 51.5 19.2C51.4 19.2 51.4 19.2 51.3 19.2C51.3 19.2 51.2 19.2 51.2 19.1V19H51.3L51.2 19.1H51.3H51.4C51.5 19.2 51.6 19.2 51.7 19.2C51.8 19.2 52 19.2 52.1 19.2C52.4 19.2 52.7 19.2 53 19.2L53.6 18.9C53 18.8 52.4 18.8 51.9 18.7C51.8 18.7 51.8 18.7 51.7 18.8C51.7 18.8 51.7 18.8 51.7 18.9H51.8C51.9 18.9 51.9 18.9 51.9 18.9V19C51.9 19.1 51.8 19.1 51.7 19.1L51.6 19C51.5 18.8 51.4 18.7 51.3 18.7C51 18.7 50.7 18.7 50.4 18.6C50.2 18.6 49.9 18.6 49.7 18.6C49.6 18.6 49.5 18.6 49.5 18.5C49.5 18.5 49.5 18.5 49.5 18.4C49.6 18.4 49.7 18.3 49.8 18.3C50.4 18.3 50.9 18.3 51.5 18.3C51.6 18.3 51.7 18.3 51.7 18.3C51.9 18.2 52 18.3 52.2 18.3C52.4 18.3 52.6 18.3 52.9 18.3C53.5 18.3 54 18.3 54.6 18.3C54.8 18.2 55 18.1 55.2 18C54.9 18 54.7 17.9 54.4 17.9C53.4 17.8 52.5 17.7 51.5 17.6C51.4 17.6 51.3 17.5 51.3 17.5C51.1 17.3 50.9 17.1 50.7 17C49.7 16.2 48.6 15.7 47.4 15.4C46.5 15.2 45.7 15 44.8 15C44.8 14.6 44.8 14.3 44.8 13.9C44.8 13.7 44.9 13.6 45 13.4C45.2 12.9 45.6 12.4 45.9 11.9C46.1 11.6 46.3 11.4 46.6 11.1C46.6 11.1 46.7 11 46.8 11C46.8 11.1 46.8 11.1 46.8 11.2C46.8 11.5 46.8 11.7 46.8 12C46.8 12.2 46.9 12.5 47 12.7C47.1 12.7 47.1 12.8 47.1 12.8C47.1 12.9 47.1 12.9 47.2 13C47.2 13 47.2 13.1 47.3 13.1C47.4 13 47.4 13.1 47.4 13.2C47.6 13.4 47.9 13.6 48.3 13.6C48.2 13.4 48.2 13.2 48.1 13C48.1 12.9 48.1 12.9 48.1 12.8V12.7C48 12.6 47.9 12.6 47.9 12.4C47.9 12.3 47.8 12.2 47.7 12C47.6 11.8 47.5 11.6 47.5 11.3C47.9 11.6 48.3 11.9 48.6 12.3C48.6 12.2 48.6 12.2 48.7 12.1C48.9 12.4 49.1 12.7 49.3 13C49.3 12.9 49.3 12.8 49.4 12.6C49.7 12.9 50 13.2 50.4 13.5C50.4 13.4 50.4 13.3 50.5 13.2C50.7 13.4 51 13.6 51.2 13.7C51.2 13.6 51.3 13.5 51.3 13.4C51.6 13.6 51.9 13.7 52.2 13.9V13.5C53 13.6 53.7 13.8 54.4 14.2C54.4 14.1 54.4 14.1 54.4 14.1C54.1 13.5 53.5 13.1 52.9 12.8L52.8 12.7C52.8 12.6 52.7 12.5 52.7 12.5C52.4 12.3 52 12.2 51.7 12C51.6 11.9 51.4 11.9 51.3 11.9C51.3 11.8 51.4 11.8 51.4 11.7C51 11.4 50.6 11.3 50.2 11.2C50.3 11.1 50.2 11 50.1 11C49.8 11 49.5 10.9 49.2 10.9C49 10.9 49 10.9 49 10.7C48.9 10.7 48.8 10.6 48.8 10.6C48.6 10.6 48.3 10.5 48.1 10.5C48 10.5 47.9 10.5 47.8 10.5L47.7 10.4L47.8 10.3C47.9 10.3 47.9 10.3 48 10.3C48.4 10.3 48.7 10.3 49.1 10.4C49.4 10.5 49.7 10.6 50 10.7V10.6C50.4 10.7 50.9 10.9 51.3 11C51.3 10.9 51.3 10.9 51.3 10.8C52.1 10.8 52.8 10.9 53.6 11C53.5 10.9 53.5 10.8 53.4 10.8C53.9 10.6 54.4 10.5 54.9 10.3C54.8 10.3 54.8 10.2 54.7 10.2C55.7 9.4 56.8 8.7 58.2 8.4C58.1 8.4 58.1 8.3 58 8.3C57.6 8.3 57.2 8.2 56.9 8.2C56.3 8.2 55.8 8.2 55.2 8.4C54.9 8.5 54.9 8.4 54.9 8.2C54.6 8.3 54.3 8.4 54 8.5C54 8.5 54 8.5 53.9 8.5C53.8 8.6 53.7 8.6 53.7 8.5C53.6 8.4 53.5 8.4 53.4 8.4C53.2 8.5 53 8.6 52.8 8.6C52.7 8.6 52.7 8.6 52.6 8.6C52.5 8.6 52.4 8.6 52.3 8.6C52 8.7 51.8 8.8 51.5 8.9C51.5 8.8 51.5 8.7 51.3 8.7C50.9 8.8 50.4 8.8 50 8.9C50 8.9 49.9 8.9 49.8 8.9C49.3 8.9 48.8 9 48.4 9.2C48.1 9.3 47.8 9.5 47.5 9.7C47.7 9.3 48 8.8 48.3 8.5C48.6 8.2 48.8 8 49.2 7.9C49.9 7.8 50.6 7.4 51.1 6.9C51.1 6.9 51.1 6.8 51.2 6.8C51.1 6.8 51.1 6.8 51 6.8C51 6.8 51 6.8 51 6.7C51.3 6.5 51.6 6.2 52 6C52.3 5.8 52.7 5.6 53.1 5.4C53 5.4 52.9 5.4 52.7 5.3C53.1 5 53.5 4.7 53.8 4.4C53.7 4.4 53.6 4.4 53.6 4.4C53.9 4.2 54.2 3.9 54.5 3.7C54.4 3.7 54.3 3.7 54.2 3.6C54.4 3.3 54.5 3.1 54.7 2.8H54.6C54.7 2.7 54.9 2.5 55 2.4C55.1 2.2 55.3 2 55.4 1.8C55.6 1.5 55.7 1.1 55.8 0.799997C55.9 0.599997 56.1 0.399997 56.2 0.199997C55.4 0.799997 54.6 1.4 53.8 1.9C53.8 1.8 53.8 1.8 53.8 1.8C53.2 2 52.6 2.3 52.1 2.6C52 2.7 52 2.7 51.9 2.5C51.9 2.5 51.9 2.5 51.9 2.4C51.7 2.6 51.5 2.8 51.3 3C51.3 3 51.2 3 51.2 2.9C51.1 2.8 51.1 2.8 51 2.9C50.6 3.2 50.3 3.4 50.1 3.9C50.1 3.9 50.1 3.9 50 3.9C50 3.8 49.9 3.8 49.9 3.7C49.7 4 49.5 4.2 49.4 4.4C49.3 4.7 49.1 4.9 49 5.2C49 5.1 48.9 5.1 48.9 5C48.9 5 48.9 5 48.9 5.1C48.7 5.6 48.4 6 48.2 6.5C48 6.9 47.9 7.4 47.8 7.8C47.7 8 47.7 8.3 47.7 8.5C47.6 8.9 47.5 9.2 47.4 9.6C47.4 9.7 47.3 9.9 47.3 10C47.3 9.3 47.4 8.6 47.6 7.9C47.5 7.9 47.5 7.9 47.4 7.9C47.4 7.4 47.4 6.9 47.5 6.4C47.4 6.4 47.4 6.5 47.3 6.5C47.3 6 47.2 5.5 47.2 5.1C47.1 5.1 47.1 5.2 47 5.3C47 4.9 46.9 4.6 46.9 4.3C46.8 4.3 46.8 4.4 46.7 4.4C46.7 4 46.7 3.6 46.8 3.3C46.7 3.3 46.7 3.4 46.6 3.4C46.5 2.6 46.5 1.7 46.5 0.899997C46 1.8 45.5 2.7 45.6 3.7C45.5 3.7 45.5 3.7 45.4 3.6C45.4 3.9 45.4 4.2 45.5 4.5C45.4 4.5 45.4 4.5 45.3 4.5C45.3 4.9 45.4 5.2 45.6 5.5C45.5 5.5 45.4 5.4 45.3 5.4C45.3 5.8 45.4 6.2 45.7 6.6C45.6 6.6 45.5 6.6 45.4 6.7C45.5 7 45.7 7.3 45.9 7.5C45.8 7.6 45.8 7.6 45.9 7.7C46.1 8.1 46.4 8.6 46.6 9C46.7 9.2 46.8 9.4 46.9 9.6C46.8 9.5 46.6 9.3 46.5 9.2C46.3 9 46.1 8.9 45.9 8.8C45.7 8.7 45.5 8.5 45.3 8.3C45.2 8.2 45.2 8.2 45.1 8.1C45.1 8.1 45.1 8.1 45 8.1V8.2C45 8.5 45 8.8 45.2 9.1C45.3 9.3 45.5 9.5 45.6 9.6C45.8 9.8 46 9.9 46.3 10C46.6 10.2 46.8 10.4 47 10.7C46.8 10.6 46.6 10.5 46.4 10.5C46.3 10.5 46.2 10.5 46.1 10.5C45.9 10.4 45.8 10.3 45.6 10.3L45.5 10.2C45.5 10.3 45.5 10.3 45.6 10.4C45.7 10.6 45.8 10.8 46 10.9C46.3 11.1 46.6 11.1 47 11.1C47.1 11.1 47.2 11.1 47.3 11.2C47.2 11.3 47.2 11.4 47.1 11.4C46.6 11.9 46.1 12.5 45.7 13.1C45.6 13.3 45.5 13.5 45.3 13.7C45.2 13.6 45.1 13.4 45 13.3C44.6 12.8 44 12.4 43.5 12.1C43.4 12.1 43.4 12 43.3 11.9C43.5 11.9 43.6 11.8 43.8 11.8C44.1 11.7 44.3 11.6 44.4 11.3C44.4 11.2 44.5 11.1 44.5 11C44.4 11.1 44.4 11.1 44.3 11.2C44.1 11.3 43.9 11.4 43.6 11.5C43.5 11.5 43.4 11.6 43.4 11.6C43.5 11.4 43.5 11.3 43.6 11.2C43.8 11 44 10.9 44.1 10.7L44.2 10.6C44.3 10.4 44.4 10.2 44.5 10C44.6 9.8 44.5 9.5 44.4 9.3C44.2 9.5 44.1 9.7 43.9 9.9C43.8 10 43.7 10 43.7 10.1C43.6 10.3 43.4 10.5 43.3 10.7C43.3 10.6 43.3 10.5 43.4 10.4C43.5 10 43.7 9.5 43.8 9.1C43.8 9.1 43.8 9 43.8 8.9C43.9 8.7 44 8.5 44.1 8.3H43.8C44 8 44 7.7 44 7.3C43.9 7.3 43.9 7.4 43.8 7.4C43.9 7.1 44 6.8 43.9 6.6C43.8 6.6 43.8 6.6 43.7 6.6C43.8 6.4 43.8 6.1 43.7 5.9C43 5.5 42.9 5.5 42.9 5.5C42.8 4.7 42.3 4 41.8 3.4C42 4 42.1 4.7 42.1 5.4C42 5.4 42 5.4 42 5.3H41.9C42 5.6 42 5.9 42.1 6.2C42 6.2 42 6.2 41.9 6.1C41.9 6.4 42 6.6 42 6.9C41.9 6.9 41.9 6.9 41.8 6.9C41.8 7.3 41.9 7.6 41.9 8C41.8 8 41.7 8 41.7 8V8.1C41.9 8.4 42 8.7 42 9C42 9.1 42 9.2 42 9.3C42.3 9.8 42.4 10.3 42.5 10.8L42.4 10.7C42.2 10.3 42 9.8 41.8 9.4C41.6 8.9 41.3 8.4 40.9 7.9C40.7 7.7 40.5 7.5 40.3 7.2C40.3 7.3 40.2 7.3 40.2 7.4C40 6.9 39.6 6.7 39.3 6.4C39.3 6.5 39.2 6.5 39.2 6.6C38.9 6.3 38.6 6.1 38.2 5.9C38.2 6 38.1 6 38.1 6.1C37.9 6 37.7 5.9 37.5 5.8V6C37.4 6 37.4 6 37.3 6C36.9 5.9 36.4 5.8 36 5.7C35.9 5.7 35.9 5.7 35.8 5.7C35.8 5.7 35.8 5.7 35.8 5.8C35.1 5.5 34.4 5.2 33.7 4.9C33.7 5 33.8 5 33.8 5C34 5.3 34.3 5.5 34.4 5.8C34.6 6.1 34.9 6.4 35.2 6.6L35.3 6.7L35.2 6.8C35.4 6.9 35.6 7.1 35.7 7.3H35.6H35.5C35.8 7.4 36 7.6 36.3 7.7C36.2 7.7 36.1 7.8 36.1 7.8C36.5 7.9 36.8 8.1 37.1 8.3C37 8.3 36.9 8.3 36.9 8.4C37.5 8.5 38.1 8.8 38.7 9.1C38.6 9.1 38.6 9.1 38.5 9.1L38.6 9.2C39.1 9.5 39.7 9.6 40.2 9.7C40.4 9.7 40.6 9.8 40.8 9.9C41.2 10.1 41.5 10.4 41.8 10.8C41.8 10.8 41.8 10.9 41.9 10.9C41.4 10.6 41 10.5 40.5 10.5C40.3 10.5 40.1 10.5 39.9 10.6C39.7 10.7 39.5 10.6 39.3 10.7C39.2 10.7 39 10.7 38.9 10.7C38.8 10.7 38.6 10.7 38.6 10.9C38.4 10.8 38.2 10.8 38 10.8H37.9C37.8 10.9 37.7 10.9 37.6 10.8C37.5 10.8 37.4 10.8 37.3 10.8C37 10.8 37 10.8 36.9 10.9C36.6 10.8 36.3 10.8 36 10.7C36 10.9 36 11 35.8 10.9C35.1 10.9 34.3 11 33.6 11.3C33.6 11.3 33.5 11.3 33.5 11.4C34.6 11.5 35.5 11.8 36.4 12.3C36.4 12.3 36.4 12.4 36.3 12.4C36.7 12.5 37.1 12.4 37.5 12.5C37.5 12.6 37.4 12.6 37.4 12.7C38 12.5 38.6 12.4 39.1 12.2C39.1 12.3 39.2 12.3 39.2 12.3C39.5 12.1 39.8 12 40 11.8C40 11.8 40.1 11.8 40.2 11.8C40.3 11.7 40.5 11.6 40.6 11.6C40.9 11.4 41.2 11.3 41.6 11.2C41.7 11.2 41.8 11.2 41.9 11.2C41.9 11.2 41.9 11.2 41.9 11.3C41.9 11.3 41.8 11.3 41.8 11.4C41.5 11.5 41.3 11.6 41 11.7C40.9 11.7 40.8 11.8 40.9 11.9C40.6 12 40.4 12.1 40.2 12.2C40.1 12.2 40.1 12.3 40.1 12.3C40.1 12.4 40 12.4 40 12.5C39.8 12.6 39.6 12.8 39.4 12.9C39.3 13 39.3 13 39.4 13.1C39.4 13.1 39.3 13.1 39.3 13.2C39 13.4 38.7 13.6 38.4 13.8L38.3 13.9C38.4 14 38.3 14 38.2 14.1C37.9 14.3 37.6 14.6 37.5 14.9C37.4 15.1 37.4 15.2 37.3 15.4C37.3 15.4 37.3 15.4 37.4 15.4C37.8 15 38.4 14.7 38.9 14.5C38.9 14.6 38.9 14.7 39 14.8C39.2 14.6 39.4 14.4 39.7 14.3C39.7 14.4 39.8 14.4 39.8 14.5C40 14.3 40.1 14.2 40.2 14C40.3 14.1 40.3 14.1 40.3 14.2C40.5 13.9 40.7 13.7 40.9 13.4C40.9 13.5 41 13.6 41 13.7C41.1 13.4 41.2 13.2 41.4 12.9C41.4 13 41.5 13 41.5 13.1C41.7 12.8 41.9 12.4 42.2 12.1C42.2 12.2 42.2 12.2 42.2 12.2C42.2 12.6 42 12.9 41.9 13.2C41.9 13.2 41.8 13.3 41.9 13.3C42 13.4 41.9 13.5 41.9 13.5C41.9 13.6 41.9 13.8 41.9 13.9C42.2 13.9 42.4 13.6 42.6 13.4C42.6 13.4 42.6 13.4 42.6 13.3C42.6 13.1 42.7 12.8 42.7 12.6C42.7 12.4 42.6 12.1 42.6 11.9C42.6 11.9 42.6 11.8 42.6 11.7C42.7 11.7 42.7 11.7 42.8 11.7C43.4 12.1 43.9 12.6 44.4 13.2C44.5 13.4 44.6 13.5 44.7 13.7C44.7 13.8 44.7 14 44.7 14.2C44.7 14.4 44.7 14.5 44.7 14.7H44.6H44.5L44.4 14.8C43.4 14.8 42.5 14.9 41.6 15.2C40.4 15.5 39.3 16 38.3 16.8C38.1 17 37.9 17.2 37.7 17.3C37.6 17.4 37.6 17.4 37.5 17.4C36.5 17.5 35.6 17.6 34.6 17.7C34.3 17.7 34.1 17.8 33.8 17.8C34 17.9 34.2 18 34.4 18.1C35 18.1 35.5 18.1 36.1 18.1C36.3 18.1 36.6 18.1 36.8 18.1C37 18.1 37.1 18 37.3 18.1C37.3 18.1 37.4 18.1 37.5 18.1C38.1 18.1 38.6 18.1 39.2 18.1C39.3 18.1 39.4 18.1 39.5 18.2C39.5 18.2 39.5 18.2 39.5 18.3C39.4 18.3 39.3 18.4 39.3 18.4C39.1 18.4 38.8 18.4 38.6 18.4C38.3 18.4 38 18.4 37.7 18.5C37.5 18.5 37.4 18.7 37.4 18.8L37.3 18.9C37.2 18.9 37.2 18.8 37.1 18.8V18.7H37.2H37.3C37.3 18.7 37.3 18.7 37.3 18.6C37.2 18.6 37.2 18.5 37.1 18.5C36.5 18.5 35.9 18.6 35.4 18.7L36 19C36.3 19 36.6 19 36.9 19C37 19 37.2 19 37.3 19C37.4 19 37.5 19 37.6 18.9H37.7H37.8L37.7 18.8H37.8C37.8 18.8 37.9 18.9 37.8 18.9L37.7 19C37.6 19 37.6 19 37.5 19C38 19 38.4 19 38.9 19C39.4 19 39.8 19 40.3 19C40.8 19 41.2 19 41.7 19.1H41.6C41.1 19.1 40.7 19.2 40.2 19.2C39.7 19.2 39.3 19.2 38.8 19.3C38.6 19.3 38.5 19.5 38.4 19.6C38.9 19.5 39.4 19.7 39.8 19.7C39.9 19.7 39.9 19.7 40 19.7L38 19.9L36 19C35.7 19 35.4 19 35.1 19C35 19 34.9 19 34.8 18.9V18.8L34.9 18.7C35.1 18.7 35.2 18.6 35.4 18.6L35.3 18.5C35 18.3 34.7 18.2 34.4 18C34 18 33.7 18 33.3 18C33.1 18 32.9 18 32.7 17.9V17.8C32.7 17.8 32.8 17.8 32.8 17.7C33.1 17.7 33.4 17.6 33.7 17.6C32 16.7 30.2 15.9 28.3 15.5C28 15.4 27.8 15.4 27.5 15.4C26.4 15.2 25.4 15.2 24.6 15.1H24.5C24.3 15.1 24.1 15.1 24 15.1H23.9H23.8C23.7 15.1 23.7 15.1 23.7 15.1C20.4 15.2 17.1 16.2 14.2 17.8C13 18.5 11.8 19.2 10.8 20.1C14.9 18.2 19.4 17.1 24 17.6C26 17.9 27.9 18.5 29.6 19.5C33.5 21.8 37.1 24.7 41.4 26.4C42.4 26.8 43.4 27.1 44.4 27.2H44.5H44.6C45.6 27 46.6 26.8 47.6 26.4C51.8 25 55.4 22.1 59.3 19.8Z" fill="white"/>
    <path d="M51.4 18.5C51.5 18.6 51.6 18.7 51.7 18.8C51.5 18.8 51.4 18.7 51.4 18.5C51.3 18.6 51.3 18.5 51.4 18.5Z" fill="white"/>
    <path d="M52.1 12.7C50.9 12.3 49.7 11.9 48.7 11.2C49.8 11.7 51 12.2 52.1 12.7Z" fill="white"/>
    <path d="M52.1 9.4C53 9.3 53.9 9.1 54.7 9C54 9.5 50.6 9.9 49.5 9.6C50.3 9.5 51.2 9.5 52.1 9.4Z" fill="white"/>
    <path d="M53.5 2.7C51.7 4.1 50 5.7 48.4 7.4C48.9 6.2 52.4 3 53.5 2.7Z" fill="white"/>
    <path d="M47.9 12.6C47.6 12.3 47.5 11.9 47.4 11.5C47.6 11.9 47.7 12.3 47.9 12.6Z" fill="white"/>
    <path d="M45.5 3.3C45.6 4.8 45.9 6.3 46.3 7.8C45.8 6.3 45.5 4.8 45.5 3.3Z" fill="white"/>
    <path d="M38.7 7.69999C37.9 7.19999 37.2 6.79999 36.4 6.39999C37.1 6.39999 40 8.19999 40.9 9.19999C40.2 8.69999 39.4 8.19999 38.7 7.69999Z" fill="white"/>
    <path d="M36.2 11.4C36.7 11.4 37.1 11.4 37.6 11.4C38.1 11.4 38.5 11.4 39 11.3C39.5 11.3 39.9 11.2 40.4 11.1C39.2 11.5 37 11.6 36.2 11.4Z" fill="white"/>
    <path d="M38.9 14C38.9 13.9 38.9 13.9 38.9 14C39.6 13.4 40.4 12.9 41.1 12.4C40.5 13 39.7 13.5 38.9 14Z" fill="white"/>
    <path d="M42.2 13.1C42.2 12.9 42.2 12.8 42.3 12.6C42.3 12.8 42.3 12.9 42.2 13.1Z" fill="white"/>
    <path d="M42.6 9.2C42.6 8 42.5 6.9 42.5 5.7C42.7 6.9 42.7 8 42.6 9.2Z" fill="white"/>
    <path d="M37.4 18.9C37.4 18.7 37.5 18.6 37.6 18.5C37.6 18.5 37.6 18.5 37.7 18.5C37.6 18.7 37.5 18.8 37.4 18.9Z" fill="white"/>
    <path d="M21.0867 48.9129V50.8399H23.1874V51.4602H21.0867V53.4451H23.4356V54.0654H20.3341V48.2926H23.4356V48.9129H21.0867ZM26.7826 49.4505C27.334 49.4505 27.7806 49.6186 28.1224 49.955C28.4643 50.2858 28.6352 50.7655 28.6352 51.394V54.0654H27.8908V51.5015C27.8908 51.0494 27.7778 50.7048 27.5518 50.4677C27.3257 50.2251 27.0169 50.1038 26.6255 50.1038C26.2285 50.1038 25.9114 50.2279 25.6743 50.476C25.4428 50.7241 25.327 51.0853 25.327 51.5594V54.0654H24.5744V49.5332H25.327V50.1783C25.4759 49.9467 25.6771 49.7675 25.9307 49.6407C26.1899 49.5139 26.4738 49.4505 26.7826 49.4505ZM30.7826 50.1534V52.8248C30.7826 53.0454 30.8295 53.2025 30.9232 53.2962C31.0169 53.3845 31.1796 53.4286 31.4112 53.4286H31.9653V54.0654H31.2871C30.8681 54.0654 30.5538 53.9689 30.3443 53.7759C30.1348 53.5829 30.03 53.2659 30.03 52.8248V50.1534H29.4428V49.5332H30.03V48.3918H30.7826V49.5332H31.9653V50.1534H30.7826ZM37.0124 51.6256C37.0124 51.769 37.0042 51.9206 36.9876 52.0805H33.3651C33.3927 52.5271 33.5443 52.8772 33.82 53.1308C34.1012 53.3789 34.4403 53.503 34.8373 53.503C35.1626 53.503 35.4328 53.4286 35.6478 53.2797C35.8683 53.1253 36.0227 52.9213 36.1109 52.6677H36.9215C36.8002 53.1033 36.5576 53.4589 36.1936 53.7346C35.8297 54.0047 35.3776 54.1398 34.8373 54.1398C34.4072 54.1398 34.0213 54.0433 33.6794 53.8504C33.3431 53.6574 33.0784 53.3845 32.8854 53.0316C32.6925 52.6732 32.596 52.2597 32.596 51.791C32.596 51.3223 32.6897 50.9116 32.8772 50.5587C33.0646 50.2058 33.3265 49.9357 33.6629 49.7482C34.0047 49.5552 34.3962 49.4587 34.8373 49.4587C35.2674 49.4587 35.6478 49.5525 35.9786 49.7399C36.3094 49.9274 36.5631 50.1865 36.7395 50.5174C36.9215 50.8427 37.0124 51.2121 37.0124 51.6256ZM36.235 51.4685C36.235 51.1817 36.1716 50.9364 36.0448 50.7324C35.918 50.5229 35.7443 50.3657 35.5237 50.261C35.3087 50.1507 35.0689 50.0956 34.8042 50.0956C34.4238 50.0956 34.0985 50.2169 33.8283 50.4595C33.5636 50.7021 33.412 51.0384 33.3734 51.4685H36.235ZM38.7585 50.2692C38.8908 50.0101 39.0783 49.8088 39.3209 49.6655C39.569 49.5221 39.8695 49.4505 40.2224 49.4505V50.2279H40.0239C39.1803 50.2279 38.7585 50.6855 38.7585 51.6008V54.0654H38.0059V49.5332H38.7585V50.2692ZM41.8438 50.3685C41.9926 50.1093 42.2132 49.8943 42.5054 49.7234C42.8031 49.5469 43.1477 49.4587 43.5392 49.4587C43.9417 49.4587 44.3056 49.5552 44.6309 49.7482C44.9617 49.9412 45.2209 50.2141 45.4083 50.567C45.5958 50.9143 45.6895 51.3196 45.6895 51.7827C45.6895 52.2404 45.5958 52.6484 45.4083 53.0068C45.2209 53.3652 44.9617 53.6436 44.6309 53.8421C44.3056 54.0406 43.9417 54.1398 43.5392 54.1398C43.1533 54.1398 42.8114 54.0544 42.5137 53.8834C42.2214 53.707 41.9981 53.4892 41.8438 53.2301V56.2157H41.0911V49.5332H41.8438V50.3685ZM44.9204 51.7827C44.9204 51.4409 44.8515 51.1432 44.7136 50.8895C44.5758 50.6359 44.3883 50.4429 44.1512 50.3106C43.9197 50.1783 43.6633 50.1121 43.3821 50.1121C43.1064 50.1121 42.85 50.181 42.6129 50.3189C42.3813 50.4512 42.1939 50.6469 42.0505 50.9061C41.9127 51.1597 41.8438 51.4547 41.8438 51.791C41.8438 52.1329 41.9127 52.4333 42.0505 52.6925C42.1939 52.9461 42.3813 53.1419 42.6129 53.2797C42.85 53.412 43.1064 53.4782 43.3821 53.4782C43.6633 53.4782 43.9197 53.412 44.1512 53.2797C44.3883 53.1419 44.5758 52.9461 44.7136 52.6925C44.8515 52.4333 44.9204 52.1301 44.9204 51.7827ZM47.4328 50.2692C47.5651 50.0101 47.7526 49.8088 47.9952 49.6655C48.2433 49.5221 48.5438 49.4505 48.8967 49.4505V50.2279H48.6982C47.8546 50.2279 47.4328 50.6855 47.4328 51.6008V54.0654H46.6802V49.5332H47.4328V50.2692ZM50.1542 48.7971C50.0108 48.7971 49.8895 48.7475 49.7903 48.6482C49.691 48.549 49.6414 48.4277 49.6414 48.2843C49.6414 48.141 49.691 48.0197 49.7903 47.9204C49.8895 47.8212 50.0108 47.7715 50.1542 47.7715C50.292 47.7715 50.4078 47.8212 50.5015 47.9204C50.6008 48.0197 50.6504 48.141 50.6504 48.2843C50.6504 48.4277 50.6008 48.549 50.5015 48.6482C50.4078 48.7475 50.292 48.7971 50.1542 48.7971ZM50.5181 49.5332V54.0654H49.7655V49.5332H50.5181ZM53.4053 54.1398C53.0579 54.1398 52.7464 54.0819 52.4707 53.9661C52.195 53.8448 51.9772 53.6794 51.8173 53.4699C51.6574 53.2549 51.5692 53.0095 51.5527 52.7338H52.3301C52.3522 52.9599 52.4569 53.1446 52.6444 53.288C52.8374 53.4313 53.0882 53.503 53.397 53.503C53.6837 53.503 53.9098 53.4396 54.0752 53.3128C54.2406 53.186 54.3233 53.0261 54.3233 52.8331C54.3233 52.6346 54.2351 52.4885 54.0586 52.3948C53.8822 52.2955 53.6093 52.199 53.2399 52.1053C52.9035 52.0171 52.6278 51.9288 52.4128 51.8406C52.2033 51.7469 52.0213 51.6118 51.867 51.4354C51.7181 51.2534 51.6437 51.0163 51.6437 50.7241C51.6437 50.4925 51.7126 50.2803 51.8504 50.0873C51.9883 49.8943 52.184 49.7427 52.4376 49.6324C52.6913 49.5166 52.9807 49.4587 53.306 49.4587C53.8078 49.4587 54.213 49.5855 54.5218 49.8392C54.8306 50.0928 54.996 50.4402 55.018 50.8813H54.2654C54.2489 50.6442 54.1524 50.4539 53.9759 50.3106C53.805 50.1672 53.5734 50.0956 53.2812 50.0956C53.011 50.0956 52.796 50.1534 52.6361 50.2692C52.4762 50.385 52.3963 50.5366 52.3963 50.7241C52.3963 50.873 52.4431 50.997 52.5369 51.0963C52.6361 51.19 52.7574 51.2672 52.9008 51.3279C53.0496 51.383 53.2536 51.4464 53.5128 51.5181C53.8381 51.6063 54.1027 51.6945 54.3068 51.7827C54.5108 51.8654 54.6844 51.9923 54.8278 52.1632C54.9767 52.3341 55.0539 52.5574 55.0594 52.8331C55.0594 53.0812 54.9905 53.3045 54.8526 53.503C54.7148 53.7015 54.519 53.8586 54.2654 53.9744C54.0173 54.0847 53.7306 54.1398 53.4053 54.1398ZM60.2571 51.6256C60.2571 51.769 60.2488 51.9206 60.2322 52.0805H56.6098C56.6373 52.5271 56.789 52.8772 57.0646 53.1308C57.3458 53.3789 57.6849 53.503 58.0819 53.503C58.4072 53.503 58.6774 53.4286 58.8924 53.2797C59.113 53.1253 59.2674 52.9213 59.3556 52.6677H60.1661C60.0448 53.1033 59.8022 53.4589 59.4383 53.7346C59.0744 54.0047 58.6223 54.1398 58.0819 54.1398C57.6518 54.1398 57.2659 54.0433 56.924 53.8504C56.5877 53.6574 56.3231 53.3845 56.1301 53.0316C55.9371 52.6732 55.8406 52.2597 55.8406 51.791C55.8406 51.3223 55.9343 50.9116 56.1218 50.5587C56.3093 50.2058 56.5712 49.9357 56.9075 49.7482C57.2494 49.5552 57.6408 49.4587 58.0819 49.4587C58.512 49.4587 58.8924 49.5525 59.2232 49.7399C59.5541 49.9274 59.8077 50.1865 59.9841 50.5174C60.1661 50.8427 60.2571 51.2121 60.2571 51.6256ZM59.4796 51.4685C59.4796 51.1817 59.4162 50.9364 59.2894 50.7324C59.1626 50.5229 58.9889 50.3657 58.7684 50.261C58.5533 50.1507 58.3135 50.0956 58.0488 50.0956C57.6684 50.0956 57.3431 50.2169 57.0729 50.4595C56.8083 50.7021 56.6566 51.0384 56.618 51.4685H59.4796ZM62.855 54.1398C62.5076 54.1398 62.1961 54.0819 61.9204 53.9661C61.6447 53.8448 61.4269 53.6794 61.267 53.4699C61.1071 53.2549 61.0189 53.0095 61.0024 52.7338H61.7798C61.8019 52.9599 61.9066 53.1446 62.0941 53.288C62.2871 53.4313 62.5379 53.503 62.8467 53.503C63.1334 53.503 63.3595 53.4396 63.5249 53.3128C63.6903 53.186 63.773 53.0261 63.773 52.8331C63.773 52.6346 63.6848 52.4885 63.5083 52.3948C63.3319 52.2955 63.059 52.199 62.6896 52.1053C62.3532 52.0171 62.0775 51.9288 61.8625 51.8406C61.653 51.7469 61.471 51.6118 61.3167 51.4354C61.1678 51.2534 61.0933 51.0163 61.0933 50.7241C61.0933 50.4925 61.1623 50.2803 61.3001 50.0873C61.438 49.8943 61.6337 49.7427 61.8873 49.6324C62.1409 49.5166 62.4304 49.4587 62.7557 49.4587C63.2575 49.4587 63.6627 49.5855 63.9715 49.8392C64.2802 50.0928 64.4457 50.4402 64.4677 50.8813H63.7151C63.6986 50.6442 63.6021 50.4539 63.4256 50.3106C63.2547 50.1672 63.0231 50.0956 62.7309 50.0956C62.4607 50.0956 62.2457 50.1534 62.0858 50.2692C61.9259 50.385 61.846 50.5366 61.846 50.7241C61.846 50.873 61.8928 50.997 61.9866 51.0963C62.0858 51.19 62.2071 51.2672 62.3505 51.3279C62.4993 51.383 62.7033 51.4464 62.9625 51.5181C63.2878 51.6063 63.5524 51.6945 63.7564 51.7827C63.9605 51.8654 64.1341 51.9923 64.2775 52.1632C64.4264 52.3341 64.5036 52.5574 64.5091 52.8331C64.5091 53.0812 64.4401 53.3045 64.3023 53.503C64.1645 53.7015 63.9687 53.8586 63.7151 53.9744C63.467 54.0847 63.1803 54.1398 62.855 54.1398Z" fill="white"/>
    </svg>
