<svg width="170" viewBox="0 0 97 62" fill="none" xmlns="http://www.w3.org/2000/svg">
    <path d="M46.2 15.1C46.3 14.9 46.3 14.8 46.4 14.6C46.2 14.8 46.2 14.9 46.2 15.1Z" fill="#8CC441"/>
    <path d="M46.6 11.2C46.7 10 46.7 8.8 46.5 7.7C46.6 8.9 46.6 10 46.6 11.2Z" fill="#8CC441"/>
    <path d="M42.9 16C43.7 15.5 44.5 15.1 45.1 14.4C44.4 14.9 43.6 15.4 42.9 16C42.9 15.9 42.9 15.9 42.9 16Z" fill="#8CC441"/>
    <path d="M58.7 11C57.9 11.1 57 11.3 56.1 11.4C55.2 11.5 54.3 11.5 53.5 11.6C54.5 11.9 57.9 11.5 58.7 11Z" fill="#8CC441"/>
    <path d="M57.5 4.7C56.5 5 52.9 8.2 52.4 9.4C54 7.7 55.6 6.1 57.5 4.7Z" fill="#8CC441"/>
    <path d="M51.4 13.5C51.5 13.9 51.6 14.3 51.9 14.6C51.7 14.3 51.6 13.9 51.4 13.5Z" fill="#8CC441"/>
    <path d="M41.6 13.4C41.1 13.4 40.7 13.4 40.2 13.4C41 13.6 43.2 13.5 44.3 13.1C43.8 13.2 43.4 13.2 42.9 13.3C42.5 13.4 42.1 13.4 41.6 13.4Z" fill="#8CC441"/>
    <path d="M56.1 14.7C54.9 14.2 53.8 13.7 52.7 13.2C53.7 13.9 54.9 14.3 56.1 14.7Z" fill="#8CC441"/>
    <path d="M50.3 9.8C50 8.3 49.7 6.8 49.5 5.3C49.5 6.8 49.8 8.3 50.3 9.8Z" fill="#8CC441"/>
    <path d="M40.4 8.39999C41.1 8.79999 41.9 9.29999 42.7 9.69999C43.5 10.2 44.2 10.7 45 11.2C44 10.2 41.1 8.39999 40.4 8.39999Z" fill="#8CC441"/>
    <path d="M64.5 23.9C63 25.1 61.7 26.5 60.1 27.6C57.3 29.7 53.8 30.9 50.3 30.9C52 31.9 54.1 32.2 56.1 32C59.3 31.7 62.3 30.1 64.7 28C65.9 26.9 67.1 25.9 68.5 25.1C71.8 23.1 76 22.7 79.7 23.8C80.2 23.9 80.6 24 81.1 24.1C79.2 22.5 76.9 21.3 74.5 21C71 20.6 67.3 21.8 64.5 23.9Z" fill="#8CC441"/>
    <path d="M38.5 28.4C36.9 27.3 35.7 25.8 34.1 24.7C31.3 22.5 27.7 21.3 24.1 21.8C21.6 22.1 19.3 23.2 17.5 24.9C18 24.8 18.4 24.8 18.9 24.6C22.6 23.5 26.8 23.9 30.1 25.9C31.5 26.7 32.7 27.7 33.9 28.8C36.3 30.9 39.3 32.5 42.5 32.8C44.5 33 46.5 32.7 48.3 31.7C44.7 31.7 41.3 30.4 38.5 28.4Z" fill="#8CC441"/>
    <path d="M68.6 17.3C68.7 17.3 68.8 17.3 69 17.3C69.2 17 69.3 16.8 69.5 16.5C69.1 16.8 68.7 17 68.4 17.3C68.4 17.3 68.5 17.3 68.6 17.3Z" fill="#8CC441"/>
    <path d="M66.8 12.5C66.8 13.5 66.9 14.5 66.9 15.5C66.4 14.5 65.9 13.5 65 12.9C65.6 13.9 66.2 14.8 66.5 15.9C65.9 15.4 65.3 14.8 64.6 14.4C65.2 15.1 65.8 15.7 66.2 16.6C65.8 16.3 65.3 16 64.8 15.7C65.1 16 65.4 16.4 65.6 16.7C65.8 16.9 65.9 17.1 66 17.4C65.7 17.2 65.5 17 65.2 16.8C64.9 16.6 64.7 16.4 64.4 16.2C64.6 16.4 64.7 16.6 64.9 16.9C65.1 17.2 65.3 17.4 65.5 17.7C65.6 17.7 65.7 17.7 65.7 17.7C66.4 17.6 67.1 17.5 67.9 17.5C68 17.5 68.1 17.5 68.2 17.5C68.6 17 69.2 15.6 69.6 15.1L71.2 16.9L69.6 14.6C68.8 15 68.3 15.6 67.7 16.2C68 15.1 68.6 14.2 69.2 13.2C68.5 13.6 68.1 14.2 67.7 14.9C67.5 15.2 67.4 15.5 67.2 15.7C67.2 14.5 67.2 13.5 66.8 12.5Z" fill="#8CC441"/>
    <path d="M28 17.3C28.1 17.3 28.3 17.3 28.5 17.3C28.2 17.1 27.8 16.8 27.5 16.6C27.7 16.9 27.8 17.1 28 17.3Z" fill="#8CC441"/>
    <path d="M32.3 16.5C32.4 16.4 32.4 16.3 32.5 16.2C32.4 16.3 32.3 16.4 32.1 16.5C31.7 16.8 31.3 17.1 30.9 17.5C31 17.3 31.2 17 31.3 16.8C31.6 16.4 31.9 16.1 32.1 15.8C31.8 16 31.4 16.2 31.1 16.5C31 16.6 30.8 16.7 30.7 16.8C30.8 16.6 30.9 16.4 31 16.3C31.4 15.7 31.9 15.2 32.3 14.7C31.8 15 31.3 15.4 30.9 15.8C30.7 15.9 30.6 16.1 30.4 16.2C30.5 15.9 30.6 15.6 30.7 15.2C31 14.5 31.5 13.9 31.8 13.2C31.3 13.6 30.9 14.1 30.5 14.6C30.3 15 30.1 15.4 29.8 15.8C29.8 14.8 29.9 13.8 29.9 12.8C29.5 13.7 29.4 14.8 29.3 15.8C28.8 14.9 28.3 13.9 27.4 13.3C28 14.3 28.6 15.2 28.9 16.3C28.5 15.5 28 14.9 27.3 14.5L25.7 16.8L27.3 15C27.7 15.5 28.3 16.7 28.6 17.3C29.3 17.3 30.4 17.4 31.5 17.6C31.8 17.2 32 16.9 32.3 16.5Z" fill="#8CC441"/>
    <path d="M63.3 21.8C65 20.8 67 20.2 68.9 19.9C73.4 19.3 78 20.4 82.1 22.4C81.1 21.4 79.9 20.8 78.7 20.1C75.8 18.5 72.4 17.5 69.1 17.4H69C68.9 17.4 68.8 17.4 68.6 17.4C68.5 17.4 68.4 17.4 68.3 17.4C68.2 17.4 68.1 17.4 68 17.4C67.3 17.4 66.5 17.5 65.8 17.6C65.7 17.6 65.6 17.6 65.6 17.6H65.5C63.3 17.9 61.3 18.8 59.4 19.8C59.7 19.8 60 19.9 60.3 19.9C60.4 19.9 60.4 19.9 60.4 20V20.1C60.2 20.1 60 20.2 59.8 20.2C59.4 20.2 59.1 20.2 58.7 20.2C58.4 20.4 58.1 20.5 57.8 20.7L57.7 20.8C57.9 20.8 58 20.9 58.2 20.9C58.2 20.9 58.3 20.9 58.3 21V21.1C58.2 21.1 58.1 21.2 58 21.2C57.7 21.2 57.4 21.2 57.1 21.2L55.1 22.1L53 21.9C53.1 21.9 53.1 21.9 53.2 21.9C53.7 21.9 54.2 21.8 54.6 21.8C54.5 21.7 54.4 21.5 54.2 21.5C53.7 21.5 53.3 21.5 52.8 21.4C52.3 21.4 51.9 21.3 51.4 21.3H51.3C51.7 21.2 52.2 21.2 52.7 21.2C53.2 21.2 53.6 21.2 54.1 21.2C54.6 21.2 55 21.2 55.5 21.2C55.4 21.2 55.4 21.2 55.3 21.2C55.3 21.2 55.2 21.2 55.2 21.1V21H55.3L55.2 21.1H55.3H55.4C55.5 21.2 55.6 21.2 55.7 21.2C55.8 21.2 56 21.2 56.1 21.2C56.4 21.2 56.7 21.2 57 21.2L57.6 20.9C57 20.8 56.4 20.8 55.9 20.7C55.8 20.7 55.8 20.7 55.7 20.8C55.7 20.8 55.7 20.8 55.7 20.9H55.8C55.9 20.9 55.9 20.9 55.9 20.9V21C55.9 21.1 55.8 21.1 55.7 21.1L55.6 21C55.5 20.8 55.4 20.7 55.3 20.7C55 20.7 54.7 20.7 54.4 20.6C54.2 20.6 53.9 20.6 53.7 20.6C53.6 20.6 53.5 20.6 53.5 20.5C53.5 20.5 53.5 20.5 53.5 20.4C53.6 20.4 53.7 20.3 53.8 20.3C54.4 20.3 54.9 20.3 55.5 20.3C55.6 20.3 55.7 20.3 55.7 20.3C55.9 20.2 56 20.3 56.2 20.3C56.4 20.3 56.6 20.3 56.9 20.3C57.5 20.3 58 20.3 58.6 20.3C58.8 20.2 59 20.1 59.2 20C58.9 20 58.7 19.9 58.4 19.9C57.4 19.8 56.5 19.7 55.5 19.6C55.4 19.6 55.3 19.5 55.3 19.5C55.1 19.3 54.9 19.1 54.7 19C53.7 18.2 52.6 17.7 51.4 17.4C50.5 17.2 49.7 17 48.8 17C48.8 16.6 48.8 16.3 48.8 15.9C48.8 15.7 48.9 15.6 49 15.4C49.2 14.9 49.6 14.4 49.9 13.9C50.1 13.6 50.3 13.4 50.6 13.1C50.6 13.1 50.7 13 50.8 13C50.8 13.1 50.8 13.1 50.8 13.2C50.8 13.5 50.8 13.7 50.8 14C50.8 14.2 50.9 14.5 51 14.7C51.1 14.7 51.1 14.8 51.1 14.8C51.1 14.9 51.1 14.9 51.2 15C51.2 15 51.2 15.1 51.3 15.1C51.4 15 51.4 15.1 51.4 15.2C51.6 15.4 51.9 15.6 52.3 15.6C52.2 15.4 52.2 15.2 52.1 15C52.1 14.9 52.1 14.9 52.1 14.8V14.7C52 14.6 51.9 14.6 51.9 14.4C51.9 14.3 51.8 14.2 51.7 14C51.6 13.8 51.5 13.6 51.5 13.3C51.9 13.6 52.3 13.9 52.6 14.3C52.6 14.2 52.6 14.2 52.7 14.1C52.9 14.4 53.1 14.7 53.3 15C53.3 14.9 53.3 14.8 53.4 14.6C53.7 14.9 54 15.2 54.4 15.5C54.4 15.4 54.4 15.3 54.5 15.2C54.7 15.4 55 15.6 55.2 15.7C55.2 15.6 55.3 15.5 55.3 15.4C55.6 15.6 55.9 15.7 56.2 15.9V15.5C57 15.6 57.7 15.8 58.4 16.2C58.4 16.1 58.4 16.1 58.4 16.1C58.1 15.5 57.5 15.1 56.9 14.8L56.8 14.7C56.8 14.6 56.7 14.5 56.7 14.5C56.4 14.3 56 14.2 55.7 14C55.6 13.9 55.4 13.9 55.3 13.9C55.3 13.8 55.4 13.8 55.4 13.7C55 13.4 54.6 13.3 54.2 13.2C54.3 13.1 54.2 13 54.1 13C53.8 13 53.5 12.9 53.2 12.9C53 12.9 53 12.9 53 12.7C52.9 12.7 52.8 12.6 52.8 12.6C52.6 12.6 52.3 12.5 52.1 12.5C52 12.5 51.9 12.5 51.8 12.5L51.7 12.4L51.8 12.3C51.9 12.3 51.9 12.3 52 12.3C52.4 12.3 52.7 12.3 53.1 12.4C53.4 12.5 53.7 12.6 54 12.7V12.6C54.4 12.7 54.9 12.9 55.3 13C55.3 12.9 55.3 12.9 55.3 12.8C56.1 12.8 56.8 12.9 57.6 13C57.5 12.9 57.5 12.8 57.4 12.8C57.9 12.6 58.4 12.5 58.9 12.3C58.8 12.3 58.8 12.2 58.7 12.2C59.7 11.4 60.8 10.7 62.2 10.4C62.1 10.4 62.1 10.3 62 10.3C61.6 10.3 61.2 10.2 60.9 10.2C60.3 10.2 59.8 10.2 59.2 10.4C58.9 10.5 58.9 10.4 58.9 10.2C58.6 10.3 58.3 10.4 58 10.5C58 10.5 58 10.5 57.9 10.5C57.8 10.6 57.7 10.6 57.7 10.5C57.6 10.4 57.5 10.4 57.4 10.4C57.2 10.5 57 10.6 56.8 10.6C56.7 10.6 56.7 10.6 56.6 10.6C56.5 10.6 56.4 10.6 56.3 10.6C56 10.7 55.8 10.8 55.5 10.9C55.5 10.8 55.5 10.7 55.3 10.7C54.9 10.8 54.4 10.8 54 10.9C54 10.9 53.9 10.9 53.8 10.9C53.3 10.9 52.8 11 52.4 11.2C52.1 11.3 51.8 11.5 51.5 11.7C51.7 11.3 52 10.8 52.3 10.5C52.6 10.2 52.8 10 53.2 9.9C53.9 9.8 54.6 9.4 55.1 8.9C55.1 8.9 55.1 8.8 55.2 8.8C55.1 8.8 55.1 8.8 55 8.8C55 8.8 55 8.8 55 8.7C55.3 8.5 55.6 8.2 56 8C56.3 7.8 56.7 7.6 57.1 7.4C57 7.4 56.9 7.4 56.7 7.3C57.1 7 57.5 6.7 57.8 6.4C57.7 6.4 57.6 6.4 57.6 6.4C57.9 6.2 58.2 5.9 58.5 5.7C58.4 5.7 58.3 5.7 58.2 5.6C58.4 5.3 58.5 5.1 58.7 4.8H58.6C58.7 4.7 58.9 4.5 59 4.4C59.1 4.2 59.3 4 59.4 3.8C59.6 3.5 59.7 3.1 59.8 2.8C59.9 2.6 60.1 2.4 60.2 2.2C59.4 2.8 58.6 3.4 57.8 3.9C57.8 3.8 57.8 3.8 57.8 3.8C57.2 4 56.6 4.3 56.1 4.6C56 4.7 56 4.7 55.9 4.5C55.9 4.5 55.9 4.5 55.9 4.4C55.7 4.6 55.5 4.8 55.3 5C55.3 5 55.2 5 55.2 4.9C55.1 4.8 55.1 4.8 55 4.9C54.6 5.2 54.3 5.4 54.1 5.9C54.1 5.9 54.1 5.9 54 5.9C54 5.8 53.9 5.8 53.9 5.7C53.7 6 53.5 6.2 53.4 6.4C53.3 6.7 53.1 6.9 53 7.2C53 7.1 52.9 7.1 52.9 7C52.9 7 52.9 7 52.9 7.1C52.7 7.6 52.4 8 52.2 8.5C52 8.9 51.9 9.4 51.8 9.8C51.7 10 51.7 10.3 51.7 10.5C51.6 10.9 51.5 11.2 51.4 11.6C51.4 11.7 51.3 11.9 51.3 12C51.3 11.3 51.4 10.6 51.6 9.9C51.5 9.9 51.5 9.9 51.4 9.9C51.4 9.4 51.4 8.9 51.5 8.4C51.4 8.4 51.4 8.5 51.3 8.5C51.3 8 51.2 7.5 51.2 7.1C51.1 7.1 51.1 7.2 51 7.3C51 6.9 50.9 6.6 50.9 6.3C50.8 6.3 50.8 6.4 50.7 6.4C50.7 6 50.7 5.6 50.8 5.3C50.7 5.3 50.7 5.4 50.6 5.4C50.5 4.6 50.5 3.7 50.5 2.9C50 3.8 49.5 4.7 49.6 5.7C49.5 5.7 49.5 5.7 49.4 5.6C49.4 5.9 49.4 6.2 49.5 6.5C49.4 6.5 49.4 6.5 49.3 6.5C49.3 6.9 49.4 7.2 49.6 7.5C49.5 7.5 49.4 7.4 49.3 7.4C49.3 7.8 49.4 8.2 49.7 8.6C49.6 8.6 49.5 8.6 49.4 8.7C49.5 9 49.7 9.3 49.9 9.5C49.8 9.6 49.8 9.6 49.9 9.7C50.1 10.1 50.4 10.6 50.6 11C50.7 11.2 50.8 11.4 50.9 11.6C50.8 11.5 50.6 11.3 50.5 11.2C50.3 11 50.1 10.9 49.9 10.8C49.7 10.7 49.5 10.5 49.3 10.3C49.2 10.2 49.2 10.2 49.1 10.1C49.1 10.1 49.1 10.1 49 10.1V10.2C49 10.5 49 10.8 49.2 11.1C49.3 11.3 49.5 11.5 49.6 11.6C49.8 11.8 50 11.9 50.3 12C50.6 12.2 50.8 12.4 51 12.7C50.8 12.6 50.6 12.5 50.4 12.5C50.3 12.5 50.2 12.5 50.1 12.5C49.9 12.4 49.8 12.3 49.6 12.3L49.5 12.2C49.5 12.3 49.5 12.3 49.6 12.4C49.7 12.6 49.8 12.8 50 12.9C50.3 13.1 50.6 13.1 51 13.1C51.1 13.1 51.2 13.1 51.3 13.2C51.2 13.3 51.2 13.4 51.1 13.4C50.6 13.9 50.1 14.5 49.7 15.1C49.6 15.3 49.5 15.5 49.3 15.7C49.2 15.6 49.1 15.4 49 15.3C48.6 14.8 48 14.4 47.5 14.1C47.4 14.1 47.4 14 47.3 13.9C47.5 13.9 47.6 13.8 47.8 13.8C48.1 13.7 48.3 13.6 48.4 13.3C48.4 13.2 48.5 13.1 48.5 13C48.4 13.1 48.4 13.1 48.3 13.2C48.1 13.3 47.9 13.4 47.6 13.5C47.5 13.5 47.4 13.6 47.4 13.6C47.5 13.4 47.5 13.3 47.6 13.2C47.8 13 48 12.9 48.1 12.7L48.2 12.6C48.3 12.4 48.4 12.2 48.5 12C48.6 11.8 48.5 11.5 48.4 11.3C48.2 11.5 48.1 11.7 47.9 11.9C47.8 12 47.7 12 47.7 12.1C47.6 12.3 47.4 12.5 47.3 12.7C47.3 12.6 47.3 12.5 47.4 12.4C47.5 12 47.7 11.5 47.8 11.1C47.8 11.1 47.8 11 47.8 10.9C47.9 10.7 48 10.5 48.1 10.3H47.8C48 10 48 9.7 48 9.3C47.9 9.3 47.9 9.4 47.8 9.4C47.9 9.1 48 8.8 47.9 8.6C47.8 8.6 47.8 8.6 47.7 8.6C47.8 8.4 47.8 8.1 47.7 7.9C47 7.5 46.9 7.5 46.9 7.5C46.8 6.7 46.3 6 45.8 5.4C46 6 46.1 6.7 46.1 7.4C46 7.4 46 7.4 46 7.3H45.9C46 7.6 46 7.9 46.1 8.2C46 8.2 46 8.2 45.9 8.1C45.9 8.4 46 8.6 46 8.9C45.9 8.9 45.9 8.9 45.8 8.9C45.8 9.3 45.9 9.6 45.9 10C45.8 10 45.7 10 45.7 10V10.1C45.9 10.4 46 10.7 46 11C46 11.1 46 11.2 46 11.3C46.3 11.8 46.4 12.3 46.5 12.8L46.4 12.7C46.2 12.3 46 11.8 45.8 11.4C45.6 10.9 45.3 10.4 44.9 9.9C44.7 9.7 44.5 9.5 44.3 9.2C44.3 9.3 44.2 9.3 44.2 9.4C44 8.9 43.6 8.7 43.3 8.4C43.3 8.5 43.2 8.5 43.2 8.6C42.9 8.3 42.6 8.1 42.2 7.9C42.2 8 42.1 8 42.1 8.1C41.9 8 41.7 7.9 41.5 7.8V8C41.4 8 41.4 8 41.3 8C40.9 7.9 40.4 7.8 40 7.7C39.9 7.7 39.9 7.7 39.8 7.7C39.8 7.7 39.8 7.7 39.8 7.8C39.1 7.5 38.4 7.2 37.7 6.9C37.7 7 37.8 7 37.8 7C38 7.3 38.3 7.5 38.4 7.8C38.6 8.1 38.9 8.4 39.2 8.6L39.3 8.7L39.2 8.8C39.4 8.9 39.6 9.1 39.7 9.3H39.6H39.5C39.8 9.4 40 9.6 40.3 9.7C40.2 9.7 40.1 9.8 40.1 9.8C40.5 9.9 40.8 10.1 41.1 10.3C41 10.3 40.9 10.3 40.9 10.4C41.5 10.5 42.1 10.8 42.7 11.1C42.6 11.1 42.6 11.1 42.5 11.1L42.6 11.2C43.1 11.5 43.7 11.6 44.2 11.7C44.4 11.7 44.6 11.8 44.8 11.9C45.2 12.1 45.5 12.4 45.8 12.8C45.8 12.8 45.8 12.9 45.9 12.9C45.4 12.6 45 12.5 44.5 12.5C44.3 12.5 44.1 12.5 43.9 12.6C43.7 12.7 43.5 12.6 43.3 12.7C43.2 12.7 43 12.7 42.9 12.7C42.8 12.7 42.6 12.7 42.6 12.9C42.4 12.8 42.2 12.8 42 12.8H41.9C41.8 12.9 41.7 12.9 41.6 12.8C41.5 12.8 41.4 12.8 41.3 12.8C41 12.8 41 12.8 40.9 12.9C40.6 12.8 40.3 12.8 40 12.7C40 12.9 40 13 39.8 12.9C39.1 12.9 38.3 13 37.6 13.3C37.6 13.3 37.5 13.3 37.5 13.4C38.6 13.5 39.5 13.8 40.4 14.3C40.4 14.3 40.4 14.4 40.3 14.4C40.7 14.5 41.1 14.4 41.5 14.5C41.5 14.6 41.4 14.6 41.4 14.7C42 14.5 42.6 14.4 43.1 14.2C43.1 14.3 43.2 14.3 43.2 14.3C43.5 14.1 43.8 14 44 13.8C44 13.8 44.1 13.8 44.2 13.8C44.3 13.7 44.5 13.6 44.6 13.6C44.9 13.4 45.2 13.3 45.6 13.2C45.7 13.2 45.8 13.2 45.9 13.2C45.9 13.2 45.9 13.2 45.9 13.3C45.9 13.3 45.8 13.3 45.8 13.4C45.5 13.5 45.3 13.6 45 13.7C44.9 13.7 44.8 13.8 44.9 13.9C44.6 14 44.4 14.1 44.2 14.2C44.1 14.2 44.1 14.3 44.1 14.3C44.1 14.4 44 14.4 44 14.5C43.8 14.6 43.6 14.8 43.4 14.9C43.3 15 43.3 15 43.4 15.1C43.4 15.1 43.3 15.1 43.3 15.2C43 15.4 42.7 15.6 42.4 15.8L42.3 15.9C42.4 16 42.3 16 42.2 16.1C41.9 16.3 41.6 16.6 41.5 16.9C41.4 17.1 41.4 17.2 41.3 17.4C41.3 17.4 41.3 17.4 41.4 17.4C41.8 17 42.4 16.7 42.9 16.5C42.9 16.6 42.9 16.7 43 16.8C43.2 16.6 43.4 16.4 43.7 16.3C43.7 16.4 43.8 16.4 43.8 16.5C44 16.3 44.1 16.2 44.2 16C44.3 16.1 44.3 16.1 44.3 16.2C44.5 15.9 44.7 15.7 44.9 15.4C44.9 15.5 45 15.6 45 15.7C45.1 15.4 45.2 15.2 45.4 14.9C45.4 15 45.5 15 45.5 15.1C45.7 14.8 45.9 14.4 46.2 14.1C46.2 14.2 46.2 14.2 46.2 14.2C46.2 14.6 46 14.9 45.9 15.2C45.9 15.2 45.8 15.3 45.9 15.3C46 15.4 45.9 15.5 45.9 15.5C45.9 15.6 45.9 15.8 45.9 15.9C46.2 15.9 46.4 15.6 46.6 15.4C46.6 15.4 46.6 15.4 46.6 15.3C46.6 15.1 46.7 14.8 46.7 14.6C46.7 14.4 46.6 14.1 46.6 13.9C46.6 13.9 46.6 13.8 46.6 13.7C46.7 13.7 46.7 13.7 46.8 13.7C47.4 14.1 47.9 14.6 48.4 15.2C48.5 15.4 48.6 15.5 48.7 15.7C48.7 15.8 48.7 16 48.7 16.2C48.7 16.4 48.7 16.5 48.7 16.7H48.6H48.5L48.4 16.8C47.4 16.8 46.5 16.9 45.6 17.2C44.4 17.5 43.3 18 42.3 18.8C42.1 19 41.9 19.2 41.7 19.3C41.6 19.4 41.6 19.4 41.5 19.4C40.5 19.5 39.6 19.6 38.6 19.7C38.3 19.7 38.1 19.8 37.8 19.8C38 19.9 38.2 20 38.4 20.1C39 20.1 39.5 20.1 40.1 20.1C40.3 20.1 40.6 20.1 40.8 20.1C41 20.1 41.1 20 41.3 20.1C41.3 20.1 41.4 20.1 41.5 20.1C42.1 20.1 42.6 20.1 43.2 20.1C43.3 20.1 43.4 20.1 43.5 20.2C43.5 20.2 43.5 20.2 43.5 20.3C43.4 20.3 43.3 20.4 43.3 20.4C43.1 20.4 42.8 20.4 42.6 20.4C42.3 20.4 42 20.4 41.7 20.5C41.5 20.5 41.4 20.7 41.4 20.8L41.3 20.9C41.2 20.9 41.2 20.8 41.1 20.8V20.7H41.2H41.3C41.3 20.7 41.3 20.7 41.3 20.6C41.2 20.6 41.2 20.5 41.1 20.5C40.5 20.5 39.9 20.6 39.4 20.7L40 21C40.3 21 40.6 21 40.9 21C41 21 41.2 21 41.3 21C41.4 21 41.5 21 41.6 20.9H41.7H41.8L41.7 20.8H41.8C41.8 20.8 41.9 20.9 41.8 20.9L41.7 21C41.6 21 41.6 21 41.5 21C42 21 42.4 21 42.9 21C43.4 21 43.8 21 44.3 21C44.8 21 45.2 21 45.7 21.1H45.6C45.1 21.1 44.7 21.2 44.2 21.2C43.7 21.2 43.3 21.2 42.8 21.3C42.6 21.3 42.5 21.5 42.4 21.6C42.9 21.5 43.4 21.7 43.8 21.7C43.9 21.7 43.9 21.7 44 21.7L42 21.9L40 21C39.7 21 39.4 21 39.1 21C39 21 38.9 21 38.8 20.9V20.8L38.9 20.7C39.1 20.7 39.2 20.6 39.4 20.6L39.3 20.5C39 20.3 38.7 20.2 38.4 20C38 20 37.7 20 37.3 20C37.1 20 36.9 20 36.7 19.9V19.8C36.7 19.8 36.8 19.8 36.8 19.7C37.1 19.7 37.4 19.6 37.7 19.6C36 18.7 34.2 17.9 32.3 17.5C32 17.4 31.8 17.4 31.5 17.4C30.4 17.2 29.4 17.2 28.6 17.1H28.5C28.3 17.1 28.1 17.1 28 17.1H27.9H27.8C27.7 17.1 27.7 17.1 27.7 17.1C24.4 17.2 21.1 18.2 18.2 19.8C17 20.5 15.8 21.2 14.8 22.1C18.9 20.2 23.4 19.1 28 19.6C30 19.9 31.9 20.5 33.6 21.5C37.5 23.8 41.1 26.7 45.4 28.4C46.4 28.8 47.4 29.1 48.4 29.2H48.5H48.6C49.6 29 50.6 28.8 51.6 28.4C55.8 27 59.4 24.1 63.3 21.8Z" fill="#8CC441"/>
    <path d="M55.4 20.5C55.5 20.6 55.6 20.7 55.7 20.8C55.5 20.8 55.4 20.7 55.4 20.5C55.3 20.6 55.3 20.5 55.4 20.5Z" fill="#8CC441"/>
    <path d="M56.1 14.7C54.9 14.3 53.7 13.9 52.7 13.2C53.8 13.7 55 14.2 56.1 14.7Z" fill="#8CC441"/>
    <path d="M56.1 11.4C57 11.3 57.9 11.1 58.7 11C58 11.5 54.6 11.9 53.5 11.6C54.3 11.5 55.2 11.5 56.1 11.4Z" fill="#8CC441"/>
    <path d="M57.5 4.7C55.7 6.1 54 7.7 52.4 9.4C52.9 8.2 56.4 5 57.5 4.7Z" fill="#8CC441"/>
    <path d="M51.9 14.6C51.6 14.3 51.5 13.9 51.4 13.5C51.6 13.9 51.7 14.3 51.9 14.6Z" fill="#8CC441"/>
    <path d="M49.5 5.3C49.6 6.8 49.9 8.3 50.3 9.8C49.8 8.3 49.5 6.8 49.5 5.3Z" fill="#8CC441"/>
    <path d="M42.7 9.69999C41.9 9.19999 41.2 8.79999 40.4 8.39999C41.1 8.39999 44 10.2 44.9 11.2C44.2 10.7 43.4 10.2 42.7 9.69999Z" fill="#8CC441"/>
    <path d="M40.2 13.4C40.7 13.4 41.1 13.4 41.6 13.4C42.1 13.4 42.5 13.4 43 13.3C43.5 13.3 43.9 13.2 44.4 13.1C43.2 13.5 41 13.6 40.2 13.4Z" fill="#8CC441"/>
    <path d="M42.9 16C42.9 15.9 42.9 15.9 42.9 16C43.6 15.4 44.4 14.9 45.1 14.4C44.5 15 43.7 15.5 42.9 16Z" fill="#8CC441"/>
    <path d="M46.2 15.1C46.2 14.9 46.2 14.8 46.3 14.6C46.3 14.8 46.3 14.9 46.2 15.1Z" fill="#8CC441"/>
    <path d="M46.6 11.2C46.6 10 46.5 8.9 46.5 7.7C46.7 8.9 46.7 10 46.6 11.2Z" fill="#8CC441"/>
    <path d="M41.4 20.9C41.4 20.7 41.5 20.6 41.6 20.5C41.6 20.5 41.6 20.5 41.7 20.5C41.6 20.7 41.5 20.8 41.4 20.9Z" fill="#8CC441"/>
    <path d="M15.2106 39.9052V40.3627C14.6381 40.4672 14.2746 40.557 14.12 40.6323C14.0448 40.6699 13.9884 40.7409 13.9508 40.8454C13.9132 40.9498 13.8944 41.2716 13.8944 41.8106C13.8944 42.6714 13.9069 43.4319 13.932 44.0921C13.6478 44.1422 13.3365 44.2028 12.9981 44.2738C12.1122 44.466 11.4729 44.5872 11.0801 44.6374C10.6915 44.6875 10.2737 44.7126 9.82658 44.7126C8.78614 44.7126 7.96297 44.583 7.35708 44.324C6.60077 43.9939 6.02205 43.4841 5.62091 42.7946C5.21978 42.1052 5.01921 41.2841 5.01921 40.3314C5.01921 38.6391 5.6439 37.3354 6.89327 36.4203C7.78747 35.7685 8.9679 35.4425 10.4346 35.4425C11.4165 35.4425 12.5238 35.5846 13.7565 35.8688C13.7481 36.1153 13.7439 36.3138 13.7439 36.4642C13.7439 36.9531 13.7648 37.6467 13.8066 38.5451H13.1673C12.9918 37.8515 12.8142 37.3709 12.6345 37.1035C12.459 36.8319 12.1833 36.6167 11.8072 36.4579C11.4353 36.295 10.9799 36.2135 10.4408 36.2135C9.73466 36.2135 9.1434 36.3576 8.66705 36.646C8.19488 36.9343 7.82717 37.3814 7.56392 37.9873C7.30485 38.589 7.17532 39.2826 7.17532 40.0682C7.17532 41.3217 7.4699 42.2702 8.05907 42.9137C8.65242 43.5572 9.43172 43.879 10.397 43.879C10.8817 43.879 11.4061 43.7703 11.9702 43.553V41.6226C11.9702 41.2005 11.9493 40.9289 11.9075 40.8078C11.8782 40.7325 11.8197 40.672 11.732 40.626C11.6484 40.58 11.381 40.5111 10.9297 40.4192C10.8796 40.4066 10.8023 40.3878 10.6978 40.3627V39.9052C11.6589 39.9512 12.3817 39.9741 12.8665 39.9741C13.2216 39.9741 14.003 39.9512 15.2106 39.9052ZM15.4989 36.0944V35.6306C16.9113 35.6765 17.7449 35.6995 17.9998 35.6995C18.2714 35.6995 18.6641 35.6933 19.1781 35.6807C19.692 35.664 20.0702 35.6557 20.3126 35.6557C20.9352 35.6557 21.4199 35.735 21.7667 35.8938C22.1135 36.0526 22.3914 36.3054 22.6003 36.6522C22.8134 36.999 22.9199 37.3856 22.9199 37.8118C22.9199 38.1753 22.8447 38.5263 22.6943 38.8647C22.5439 39.199 22.3433 39.4832 22.0926 39.7172C21.9296 39.8718 21.6685 40.0389 21.3091 40.2186C21.5933 40.7075 22.009 41.399 22.5564 42.2932C22.9576 42.9492 23.2187 43.342 23.3399 43.4716C23.4652 43.6011 23.599 43.7014 23.741 43.7724C23.9583 43.8727 24.3553 43.9688 24.9319 44.0607V44.5245C24.2216 44.4786 23.6428 44.4556 23.1957 44.4556C22.7236 44.4556 22.1427 44.4786 21.4533 44.5245C20.9435 43.3504 20.2896 42.007 19.4915 40.4944C19.2533 40.486 19.0047 40.4693 18.7456 40.4442L18.7644 43.0516C18.7728 43.3734 18.7999 43.5739 18.8459 43.6533C18.8919 43.7285 18.9566 43.7829 19.0402 43.8163C19.0987 43.8455 19.4727 43.927 20.1621 44.0607V44.5245C19.1885 44.4786 18.4072 44.4556 17.818 44.4556C17.2372 44.4556 16.4641 44.4786 15.4989 44.5245V44.0607C16.2093 43.9312 16.6083 43.8309 16.6961 43.7599C16.788 43.6888 16.8465 43.5489 16.8716 43.3399C16.8841 43.2271 16.8924 42.1553 16.8966 40.1246L16.8904 38.2568C16.8904 37.3793 16.8736 36.8507 16.8402 36.671C16.8151 36.5415 16.7566 36.4454 16.6647 36.3827C16.577 36.3159 16.2824 36.2386 15.781 36.1508L15.4989 36.0944ZM18.7519 39.736C18.9608 39.7443 19.1154 39.7485 19.2157 39.7485C19.8007 39.7485 20.2311 39.6106 20.5069 39.3348C20.7868 39.0549 20.9268 38.6308 20.9268 38.0625C20.9268 37.5276 20.7952 37.1202 20.5319 36.8403C20.2687 36.5561 19.9114 36.4141 19.4601 36.4141C19.2763 36.4141 19.0381 36.4287 18.7456 36.4579L18.7519 39.736ZM30.3786 44.5245V44.0607C30.8842 43.9688 31.1767 43.8936 31.2561 43.8351C31.3355 43.7766 31.3752 43.6972 31.3752 43.5969C31.3752 43.5384 31.3626 43.4716 31.3376 43.3963C31.2707 43.2208 31.0534 42.6944 30.6857 41.8169C30.0965 41.8043 29.6056 41.7981 29.2128 41.7981C28.891 41.7981 28.3541 41.8043 27.602 41.8169C27.1382 42.9116 26.9062 43.5113 26.9062 43.6157C26.9062 43.716 26.9397 43.7912 27.0065 43.8414C27.0734 43.8873 27.3701 43.9604 27.8966 44.0607V44.5245C27.3701 44.4786 26.8666 44.4556 26.386 44.4556C25.8679 44.4556 25.3414 44.4786 24.8065 44.5245V44.0607C25.1826 43.9813 25.4417 43.8915 25.5838 43.7912C25.6799 43.7244 25.7676 43.6241 25.847 43.4904C26.01 43.2271 26.4968 42.2076 27.3074 40.4317C27.8213 39.3077 28.5547 37.6446 29.5074 35.4425H30.0151C30.4037 36.4245 31.208 38.2568 32.4282 40.9394C33.1051 42.4311 33.5104 43.2793 33.6441 43.4841C33.736 43.6262 33.828 43.7264 33.9199 43.7849C34.0118 43.8434 34.3022 43.9354 34.7911 44.0607V44.5245C34.0515 44.4786 33.3641 44.4556 32.729 44.4556C32.1022 44.4556 31.3188 44.4786 30.3786 44.5245ZM29.1752 38.144L27.8966 41.0961L29.1376 41.1023C29.4342 41.1023 29.8605 41.1003 30.4162 41.0961L29.1752 38.144ZM41.0839 38.1753H40.4572C40.3193 37.373 40.1103 36.8361 39.8304 36.5645C39.5504 36.2887 39.1702 36.1508 38.6897 36.1508C38.2593 36.1508 37.9229 36.2636 37.6805 36.4893C37.4424 36.7107 37.3233 36.9949 37.3233 37.3417C37.3233 37.6509 37.434 37.9309 37.6555 38.1816C37.8769 38.4365 38.4034 38.7519 39.2349 39.128C40.0665 39.5041 40.6473 39.901 40.9774 40.3189C41.3075 40.7409 41.4725 41.2632 41.4725 41.8858C41.4725 42.6379 41.1884 43.2981 40.6201 43.8664C40.056 44.4305 39.143 44.7126 37.8811 44.7126C37.4298 44.7126 37.0036 44.6791 36.6025 44.6123C36.2975 44.5663 35.9193 44.4702 35.468 44.324C35.5391 43.5886 35.5746 42.8636 35.5746 42.1491V41.7291H36.1888C36.3476 42.5606 36.544 43.1164 36.778 43.3963C37.0914 43.7766 37.5259 43.9667 38.0817 43.9667C38.5246 43.9667 38.8798 43.8351 39.1472 43.5718C39.4146 43.3086 39.5483 42.9722 39.5483 42.5627C39.5483 42.3037 39.4919 42.0738 39.3791 41.8733C39.2705 41.6727 39.1054 41.4909 38.884 41.328C38.6667 41.165 38.2697 40.9498 37.6931 40.6824C36.8072 40.2646 36.2139 39.8613 35.913 39.4727C35.6122 39.0883 35.4618 38.6349 35.4618 38.1126C35.4618 37.3438 35.7459 36.7065 36.3142 36.2009C36.8824 35.6953 37.7014 35.4425 38.7711 35.4425C39.4815 35.4425 40.2524 35.5783 41.0839 35.85C41.0589 36.506 41.0463 36.9614 41.0463 37.2163C41.0463 37.513 41.0589 37.8327 41.0839 38.1753ZM48.1665 38.1753H47.5397C47.4018 37.373 47.1929 36.8361 46.913 36.5645C46.633 36.2887 46.2528 36.1508 45.7722 36.1508C45.3418 36.1508 45.0055 36.2636 44.7631 36.4893C44.5249 36.7107 44.4059 36.9949 44.4059 37.3417C44.4059 37.6509 44.5166 37.9309 44.738 38.1816C44.9595 38.4365 45.486 38.7519 46.3175 39.128C47.149 39.5041 47.7299 39.901 48.06 40.3189C48.3901 40.7409 48.5551 41.2632 48.5551 41.8858C48.5551 42.6379 48.271 43.2981 47.7027 43.8664C47.1386 44.4305 46.2256 44.7126 44.9637 44.7126C44.5124 44.7126 44.0862 44.6791 43.6851 44.6123C43.38 44.5663 43.0019 44.4702 42.5506 44.324C42.6216 43.5886 42.6572 42.8636 42.6572 42.1491V41.7291H43.2714C43.4302 42.5606 43.6266 43.1164 43.8606 43.3963C44.1739 43.7766 44.6085 43.9667 45.1643 43.9667C45.6072 43.9667 45.9624 43.8351 46.2298 43.5718C46.4972 43.3086 46.6309 42.9722 46.6309 42.5627C46.6309 42.3037 46.5745 42.0738 46.4617 41.8733C46.353 41.6727 46.188 41.4909 45.9665 41.328C45.7492 41.165 45.3523 40.9498 44.7757 40.6824C43.8898 40.2646 43.2965 39.8613 42.9956 39.4727C42.6948 39.0883 42.5443 38.6349 42.5443 38.1126C42.5443 37.3438 42.8285 36.7065 43.3967 36.2009C43.965 35.6953 44.784 35.4425 45.8537 35.4425C46.5641 35.4425 47.335 35.5783 48.1665 35.85C48.1414 36.506 48.1289 36.9614 48.1289 37.2163C48.1289 37.513 48.1414 37.8327 48.1665 38.1753ZM49.0628 36.0944V35.6306C50.1325 35.6765 50.9661 35.6995 51.5636 35.6995C52.1737 35.6995 52.9864 35.6765 54.0018 35.6306V36.0944C53.141 36.2239 52.673 36.3075 52.5978 36.3451C52.4725 36.4161 52.4098 36.5979 52.4098 36.8904L52.391 38.5012V43.716H54.6725C55.0485 43.716 55.2992 43.6909 55.4246 43.6408C55.5959 43.5698 55.761 43.4423 55.9197 43.2585C56.0785 43.0746 56.3585 42.6484 56.7596 41.9798H57.3237C57.0438 42.7529 56.7701 43.6011 56.5026 44.5245C54.7268 44.4786 53.2497 44.4556 52.0713 44.4556C51.1061 44.4556 50.1033 44.4786 49.0628 44.5245V44.0607C49.8066 43.9145 50.2161 43.8142 50.2913 43.7599C50.3665 43.7056 50.4125 43.6053 50.4292 43.459C50.4501 43.3086 50.4605 42.3058 50.4605 40.4505L50.4542 38.169V37.7679C50.4542 37.0993 50.4313 36.6982 50.3853 36.5645C50.3519 36.4642 50.2934 36.3952 50.2098 36.3576C50.1304 36.3159 49.7481 36.2281 49.0628 36.0944ZM63.1339 44.5245V44.0607C63.6395 43.9688 63.932 43.8936 64.0114 43.8351C64.0908 43.7766 64.1305 43.6972 64.1305 43.5969C64.1305 43.5384 64.118 43.4716 64.0929 43.3963C64.0261 43.2208 63.8088 42.6944 63.4411 41.8169C62.8519 41.8043 62.3609 41.7981 61.9681 41.7981C61.6464 41.7981 61.1095 41.8043 60.3573 41.8169C59.8935 42.9116 59.6616 43.5113 59.6616 43.6157C59.6616 43.716 59.695 43.7912 59.7619 43.8414C59.8287 43.8873 60.1254 43.9604 60.6519 44.0607V44.5245C60.1254 44.4786 59.6219 44.4556 59.1414 44.4556C58.6232 44.4556 58.0967 44.4786 57.5619 44.5245V44.0607C57.938 43.9813 58.197 43.8915 58.3391 43.7912C58.4352 43.7244 58.523 43.6241 58.6023 43.4904C58.7653 43.2271 59.2521 42.2076 60.0627 40.4317C60.5767 39.3077 61.31 37.6446 62.2627 35.4425H62.7704C63.159 36.4245 63.9634 38.2568 65.1835 40.9394C65.8604 42.4311 66.2657 43.2793 66.3994 43.4841C66.4914 43.6262 66.5833 43.7264 66.6752 43.7849C66.7672 43.8434 67.0576 43.9354 67.5465 44.0607V44.5245C66.8069 44.4786 66.1195 44.4556 65.4844 44.4556C64.8576 44.4556 64.0741 44.4786 63.1339 44.5245ZM61.9305 38.144L60.6519 41.0961L61.8929 41.1023C62.1896 41.1023 62.6158 41.1003 63.1715 41.0961L61.9305 38.144ZM67.6091 36.0944V35.6306C68.1816 35.6765 68.7143 35.6995 69.2074 35.6995C69.7047 35.6995 70.2896 35.6765 70.9624 35.6306C71.4722 36.3159 73.0057 38.2108 75.5629 41.3154L75.5379 37.9058C75.517 37.0743 75.4835 36.6125 75.4376 36.5206C75.3958 36.4245 75.3247 36.3514 75.2245 36.3012C75.1242 36.2469 74.7711 36.178 74.1652 36.0944V35.6306C74.838 35.6765 75.425 35.6995 75.9265 35.6995C76.4112 35.6995 77.0296 35.6765 77.7817 35.6306V36.0944C77.6522 36.1195 77.5561 36.1362 77.4934 36.1445C77.0003 36.2198 76.7057 36.3033 76.6096 36.3952C76.5135 36.483 76.4571 36.6669 76.4404 36.9468C76.3986 37.5318 76.3777 38.7352 76.3777 40.557C76.3777 41.727 76.4007 43.0642 76.4467 44.5684C76.2503 44.6269 76.056 44.6959 75.8638 44.7753L73.4883 41.7793L69.8655 37.373L69.8843 40.3502L69.9345 43.2459C69.947 43.4632 69.9679 43.6011 69.9971 43.6596C70.0264 43.7139 70.0682 43.7578 70.1225 43.7912C70.2144 43.8455 70.5111 43.9187 71.0125 44.0106C71.071 44.0189 71.1588 44.0357 71.2758 44.0607V44.5245C70.5571 44.4786 69.9804 44.4556 69.5459 44.4556C69.174 44.4556 68.543 44.4786 67.653 44.5245V44.0607C67.7825 44.0357 67.8807 44.0169 67.9476 44.0043C68.4281 43.9291 68.7143 43.856 68.8063 43.7849C68.8648 43.739 68.9066 43.6742 68.9316 43.5906C68.9567 43.5029 68.9839 42.8803 69.0131 41.7229C69.0591 40.0473 69.0821 38.6099 69.0821 37.4106C69.0821 37.0095 69.0591 36.7525 69.0131 36.6397C68.9713 36.5269 68.894 36.4391 68.7812 36.3764C68.6684 36.3138 68.3822 36.2406 67.9225 36.1571C67.8515 36.1445 67.747 36.1236 67.6091 36.0944ZM78.0136 36.0944V35.6306C78.9872 35.6765 79.7916 35.6995 80.4267 35.6995C80.9114 35.6995 81.5821 35.687 82.4387 35.6619C83.0613 35.641 83.5815 35.6306 83.9993 35.6306C84.7849 35.6306 85.4075 35.7309 85.8671 35.9314C86.5023 36.2072 86.9995 36.6313 87.3589 37.2038C87.7224 37.7762 87.9042 38.5179 87.9042 39.4288C87.9042 40.44 87.6681 41.3405 87.1959 42.1303C86.7237 42.9158 86.0593 43.5301 85.2028 43.973C84.4882 44.3449 83.6212 44.5308 82.6016 44.5308C82.5055 44.5308 82.1169 44.5162 81.4358 44.4869C80.7547 44.4619 80.3724 44.4493 80.2888 44.4493C79.9963 44.4493 79.2379 44.4744 78.0136 44.5245V44.0607L78.2769 44.0106C78.8243 43.9145 79.1439 43.8246 79.2358 43.7411C79.3319 43.6575 79.3884 43.5342 79.4051 43.3713C79.426 43.1289 79.4364 41.8607 79.4364 39.5667C79.4364 37.8828 79.4197 36.9343 79.3863 36.7212C79.3654 36.5749 79.3131 36.4684 79.2296 36.4015C79.146 36.3347 78.8284 36.2511 78.2769 36.1508L78.0136 36.0944ZM81.3794 43.6909C81.885 43.7745 82.3091 43.8163 82.6518 43.8163C83.6128 43.8163 84.3378 43.5321 84.8267 42.9639C85.4493 42.2368 85.7606 41.1817 85.7606 39.7986C85.7606 38.6119 85.4848 37.7115 84.9332 37.0972C84.4861 36.5958 83.7862 36.3451 82.8335 36.3451C82.4324 36.3451 81.9477 36.3848 81.3794 36.4642C81.3376 37.116 81.3167 38.3257 81.3167 40.0932C81.3167 41.1086 81.3376 42.3078 81.3794 43.6909Z" fill="white"/>
    <path d="M25.0867 50.9129V52.8399H27.1874V53.4602H25.0867V55.4451H27.4356V56.0654H24.3341V50.2926H27.4356V50.9129H25.0867ZM30.7826 51.4505C31.334 51.4505 31.7806 51.6186 32.1224 51.955C32.4643 52.2858 32.6352 52.7655 32.6352 53.394V56.0654H31.8908V53.5015C31.8908 53.0494 31.7778 52.7048 31.5518 52.4677C31.3257 52.2251 31.0169 52.1038 30.6255 52.1038C30.2285 52.1038 29.9114 52.2279 29.6743 52.476C29.4428 52.7241 29.327 53.0853 29.327 53.5594V56.0654H28.5744V51.5332H29.327V52.1783C29.4759 51.9467 29.6771 51.7675 29.9307 51.6407C30.1899 51.5139 30.4738 51.4505 30.7826 51.4505ZM34.7826 52.1534V54.8248C34.7826 55.0454 34.8295 55.2025 34.9232 55.2962C35.0169 55.3845 35.1796 55.4286 35.4112 55.4286H35.9653V56.0654H35.2871C34.8681 56.0654 34.5538 55.9689 34.3443 55.7759C34.1348 55.5829 34.03 55.2659 34.03 54.8248V52.1534H33.4428V51.5332H34.03V50.3918H34.7826V51.5332H35.9653V52.1534H34.7826ZM41.0124 53.6256C41.0124 53.769 41.0042 53.9206 40.9876 54.0805H37.3651C37.3927 54.5271 37.5443 54.8772 37.82 55.1308C38.1012 55.3789 38.4403 55.503 38.8373 55.503C39.1626 55.503 39.4328 55.4286 39.6478 55.2797C39.8683 55.1253 40.0227 54.9213 40.1109 54.6677H40.9215C40.8002 55.1033 40.5576 55.4589 40.1936 55.7346C39.8297 56.0047 39.3776 56.1398 38.8373 56.1398C38.4072 56.1398 38.0213 56.0433 37.6794 55.8504C37.3431 55.6574 37.0784 55.3845 36.8854 55.0316C36.6925 54.6732 36.596 54.2597 36.596 53.791C36.596 53.3223 36.6897 52.9116 36.8772 52.5587C37.0646 52.2058 37.3265 51.9357 37.6629 51.7482C38.0047 51.5552 38.3962 51.4587 38.8373 51.4587C39.2674 51.4587 39.6478 51.5525 39.9786 51.7399C40.3094 51.9274 40.5631 52.1865 40.7395 52.5174C40.9215 52.8427 41.0124 53.2121 41.0124 53.6256ZM40.235 53.4685C40.235 53.1817 40.1716 52.9364 40.0448 52.7324C39.918 52.5229 39.7443 52.3657 39.5237 52.261C39.3087 52.1507 39.0689 52.0956 38.8042 52.0956C38.4238 52.0956 38.0985 52.2169 37.8283 52.4595C37.5636 52.7021 37.412 53.0384 37.3734 53.4685H40.235ZM42.7585 52.2692C42.8908 52.0101 43.0783 51.8088 43.3209 51.6655C43.569 51.5221 43.8695 51.4505 44.2224 51.4505V52.2279H44.0239C43.1803 52.2279 42.7585 52.6855 42.7585 53.6008V56.0654H42.0059V51.5332H42.7585V52.2692ZM45.8438 52.3685C45.9926 52.1093 46.2132 51.8943 46.5054 51.7234C46.8031 51.5469 47.1477 51.4587 47.5392 51.4587C47.9417 51.4587 48.3056 51.5552 48.6309 51.7482C48.9617 51.9412 49.2209 52.2141 49.4083 52.567C49.5958 52.9143 49.6895 53.3196 49.6895 53.7827C49.6895 54.2404 49.5958 54.6484 49.4083 55.0068C49.2209 55.3652 48.9617 55.6436 48.6309 55.8421C48.3056 56.0406 47.9417 56.1398 47.5392 56.1398C47.1533 56.1398 46.8114 56.0544 46.5137 55.8834C46.2214 55.707 45.9981 55.4892 45.8438 55.2301V58.2157H45.0911V51.5332H45.8438V52.3685ZM48.9204 53.7827C48.9204 53.4409 48.8515 53.1432 48.7136 52.8895C48.5758 52.6359 48.3883 52.4429 48.1512 52.3106C47.9197 52.1783 47.6633 52.1121 47.3821 52.1121C47.1064 52.1121 46.85 52.181 46.6129 52.3189C46.3813 52.4512 46.1939 52.6469 46.0505 52.9061C45.9127 53.1597 45.8438 53.4547 45.8438 53.791C45.8438 54.1329 45.9127 54.4333 46.0505 54.6925C46.1939 54.9461 46.3813 55.1419 46.6129 55.2797C46.85 55.412 47.1064 55.4782 47.3821 55.4782C47.6633 55.4782 47.9197 55.412 48.1512 55.2797C48.3883 55.1419 48.5758 54.9461 48.7136 54.6925C48.8515 54.4333 48.9204 54.1301 48.9204 53.7827ZM51.4328 52.2692C51.5651 52.0101 51.7526 51.8088 51.9952 51.6655C52.2433 51.5221 52.5438 51.4505 52.8967 51.4505V52.2279H52.6982C51.8546 52.2279 51.4328 52.6855 51.4328 53.6008V56.0654H50.6802V51.5332H51.4328V52.2692ZM54.1542 50.7971C54.0108 50.7971 53.8895 50.7475 53.7903 50.6482C53.691 50.549 53.6414 50.4277 53.6414 50.2843C53.6414 50.141 53.691 50.0197 53.7903 49.9204C53.8895 49.8212 54.0108 49.7715 54.1542 49.7715C54.292 49.7715 54.4078 49.8212 54.5015 49.9204C54.6008 50.0197 54.6504 50.141 54.6504 50.2843C54.6504 50.4277 54.6008 50.549 54.5015 50.6482C54.4078 50.7475 54.292 50.7971 54.1542 50.7971ZM54.5181 51.5332V56.0654H53.7655V51.5332H54.5181ZM57.4053 56.1398C57.0579 56.1398 56.7464 56.0819 56.4707 55.9661C56.195 55.8448 55.9772 55.6794 55.8173 55.4699C55.6574 55.2549 55.5692 55.0095 55.5527 54.7338H56.3301C56.3522 54.9599 56.4569 55.1446 56.6444 55.288C56.8374 55.4313 57.0882 55.503 57.397 55.503C57.6837 55.503 57.9098 55.4396 58.0752 55.3128C58.2406 55.186 58.3233 55.0261 58.3233 54.8331C58.3233 54.6346 58.2351 54.4885 58.0586 54.3948C57.8822 54.2955 57.6093 54.199 57.2399 54.1053C56.9035 54.0171 56.6278 53.9288 56.4128 53.8406C56.2033 53.7469 56.0213 53.6118 55.867 53.4354C55.7181 53.2534 55.6437 53.0163 55.6437 52.7241C55.6437 52.4925 55.7126 52.2803 55.8504 52.0873C55.9883 51.8943 56.184 51.7427 56.4376 51.6324C56.6913 51.5166 56.9807 51.4587 57.306 51.4587C57.8078 51.4587 58.213 51.5855 58.5218 51.8392C58.8306 52.0928 58.996 52.4402 59.018 52.8813H58.2654C58.2489 52.6442 58.1524 52.4539 57.9759 52.3106C57.805 52.1672 57.5734 52.0956 57.2812 52.0956C57.011 52.0956 56.796 52.1534 56.6361 52.2692C56.4762 52.385 56.3963 52.5366 56.3963 52.7241C56.3963 52.873 56.4431 52.997 56.5369 53.0963C56.6361 53.19 56.7574 53.2672 56.9008 53.3279C57.0496 53.383 57.2536 53.4464 57.5128 53.5181C57.8381 53.6063 58.1027 53.6945 58.3068 53.7827C58.5108 53.8654 58.6844 53.9923 58.8278 54.1632C58.9767 54.3341 59.0539 54.5574 59.0594 54.8331C59.0594 55.0812 58.9905 55.3045 58.8526 55.503C58.7148 55.7015 58.519 55.8586 58.2654 55.9744C58.0173 56.0847 57.7306 56.1398 57.4053 56.1398ZM64.2571 53.6256C64.2571 53.769 64.2488 53.9206 64.2322 54.0805H60.6098C60.6373 54.5271 60.789 54.8772 61.0646 55.1308C61.3458 55.3789 61.6849 55.503 62.0819 55.503C62.4072 55.503 62.6774 55.4286 62.8924 55.2797C63.113 55.1253 63.2674 54.9213 63.3556 54.6677H64.1661C64.0448 55.1033 63.8022 55.4589 63.4383 55.7346C63.0744 56.0047 62.6223 56.1398 62.0819 56.1398C61.6518 56.1398 61.2659 56.0433 60.924 55.8504C60.5877 55.6574 60.3231 55.3845 60.1301 55.0316C59.9371 54.6732 59.8406 54.2597 59.8406 53.791C59.8406 53.3223 59.9343 52.9116 60.1218 52.5587C60.3093 52.2058 60.5712 51.9357 60.9075 51.7482C61.2494 51.5552 61.6408 51.4587 62.0819 51.4587C62.512 51.4587 62.8924 51.5525 63.2232 51.7399C63.5541 51.9274 63.8077 52.1865 63.9841 52.5174C64.1661 52.8427 64.2571 53.2121 64.2571 53.6256ZM63.4796 53.4685C63.4796 53.1817 63.4162 52.9364 63.2894 52.7324C63.1626 52.5229 62.9889 52.3657 62.7684 52.261C62.5533 52.1507 62.3135 52.0956 62.0488 52.0956C61.6684 52.0956 61.3431 52.2169 61.0729 52.4595C60.8083 52.7021 60.6566 53.0384 60.618 53.4685H63.4796ZM66.855 56.1398C66.5076 56.1398 66.1961 56.0819 65.9204 55.9661C65.6447 55.8448 65.4269 55.6794 65.267 55.4699C65.1071 55.2549 65.0189 55.0095 65.0024 54.7338H65.7798C65.8019 54.9599 65.9066 55.1446 66.0941 55.288C66.2871 55.4313 66.5379 55.503 66.8467 55.503C67.1334 55.503 67.3595 55.4396 67.5249 55.3128C67.6903 55.186 67.773 55.0261 67.773 54.8331C67.773 54.6346 67.6848 54.4885 67.5083 54.3948C67.3319 54.2955 67.059 54.199 66.6896 54.1053C66.3532 54.0171 66.0775 53.9288 65.8625 53.8406C65.653 53.7469 65.471 53.6118 65.3167 53.4354C65.1678 53.2534 65.0933 53.0163 65.0933 52.7241C65.0933 52.4925 65.1623 52.2803 65.3001 52.0873C65.438 51.8943 65.6337 51.7427 65.8873 51.6324C66.1409 51.5166 66.4304 51.4587 66.7557 51.4587C67.2575 51.4587 67.6627 51.5855 67.9715 51.8392C68.2802 52.0928 68.4457 52.4402 68.4677 52.8813H67.7151C67.6986 52.6442 67.6021 52.4539 67.4256 52.3106C67.2547 52.1672 67.0231 52.0956 66.7309 52.0956C66.4607 52.0956 66.2457 52.1534 66.0858 52.2692C65.9259 52.385 65.846 52.5366 65.846 52.7241C65.846 52.873 65.8928 52.997 65.9866 53.0963C66.0858 53.19 66.2071 53.2672 66.3505 53.3279C66.4993 53.383 66.7033 53.4464 66.9625 53.5181C67.2878 53.6063 67.5524 53.6945 67.7564 53.7827C67.9605 53.8654 68.1341 53.9923 68.2775 54.1632C68.4264 54.3341 68.5036 54.5574 68.5091 54.8331C68.5091 55.0812 68.4401 55.3045 68.3023 55.503C68.1645 55.7015 67.9687 55.8586 67.7151 55.9744C67.467 56.0847 67.1803 56.1398 66.855 56.1398Z" fill="white"/>
    </svg>
