<?xml version="1.0" encoding="utf-8"?>
<!-- Generator: Adobe Illustrator 24.0.1, SVG Export Plug-In . SVG Version: 6.00 Build 0)  -->
<svg version="1.1" width="50" height

="50" id="Layer_1" xmlns="http://www.w3.org/2000/svg" xmlns:xlink="http://www.w3.org/1999/xlink" x="0px" y="0px"
	 viewBox="0 0 32 32" style="enable-background:new 0 0 32 32;" xml:space="preserve">
<style type="text/css">
	.st0{fill:#FFFFFF;}
	.st1{fill:#8CC441;}
	.st2{fill:url(#SVGID_1_);}
	.st3{fill:url(#SVGID_2_);}
	.st4{fill:url(#SVGID_3_);}
	.st5{fill:url(#SVGID_4_);}
	.st6{fill:url(#SVGID_5_);}
	.st7{fill:url(#SVGID_6_);}
	.st8{fill:url(#SVGID_7_);}
	.st9{fill:url(#SVGID_8_);}
	.st10{fill:url(#SVGID_9_);}
	.st11{fill:url(#SVGID_10_);}
	.st12{fill:url(#SVGID_11_);}
	.st13{fill:#8FC749;}
	.st14{fill:#056939;}
</style>
<g>
	<path class="st1" d="M15,14.1C15,14.1,15,14.2,15,14.1c0-0.1,0.1-0.1,0.1-0.2c0,0,0,0,0,0C15,14,15,14.1,15,14.1z"/>
	<path class="st1" d="M15.2,12.5c0.1-0.5,0.1-1,0-1.5C15.2,11.5,15.2,12,15.2,12.5z"/>
	<path class="st1" d="M13.6,14.5c0.3-0.2,0.7-0.4,0.9-0.7C14.2,14.1,13.9,14.3,13.6,14.5C13.6,14.5,13.6,14.5,13.6,14.5z"/>
	<path class="st1" d="M20.4,12.4c-0.4,0.1-0.7,0.1-1.1,0.2c-0.4,0-0.8,0.1-1.1,0.1C18.6,12.8,20.1,12.6,20.4,12.4z"/>
	<path class="st1" d="M19.9,9.7c-0.4,0.1-2,1.5-2.2,2C18.4,11,19.1,10.3,19.9,9.7z"/>
	<path class="st1" d="M17.2,13.5c0,0.2,0.1,0.3,0.2,0.5C17.4,13.8,17.3,13.6,17.2,13.5z"/>
	<path class="st1" d="M13,13.4c-0.2,0-0.4,0-0.6,0c0.3,0.1,1.3,0.1,1.8-0.1c-0.2,0-0.4,0.1-0.6,0.1C13.4,13.4,13.2,13.4,13,13.4z"/>
	<path class="st1" d="M19.3,14c-0.5-0.2-1-0.4-1.5-0.6C18.2,13.6,18.8,13.8,19.3,14C19.3,14,19.3,14,19.3,14z"/>
	<path class="st1" d="M16.2,12.2c0.1,0.1,0.2,0.1,0.2,0.2c0,0,0,0,0,0C16.4,12.3,16.3,12.2,16.2,12.2C16.2,12.2,16.2,12.2,16.2,12.2
		z"/>
	<path class="st1" d="M16.8,11.9c-0.1-0.6-0.3-1.3-0.3-1.9C16.4,10.6,16.6,11.2,16.8,11.9z"/>
	<path class="st1" d="M12.5,11.3c0.3,0.2,0.7,0.4,1,0.6c0.3,0.2,0.6,0.4,1,0.6C14.1,12.1,12.8,11.3,12.5,11.3z"/>
	<path class="st1" d="M22.9,18c-0.7,0.5-1.2,1.1-1.9,1.6c-1.2,0.9-2.7,1.4-4.2,1.4c0.7,0.4,1.6,0.5,2.5,0.5c1.4-0.1,2.7-0.8,3.7-1.7
		c0.5-0.5,1-0.9,1.6-1.2c1.4-0.9,3.2-1,4.8-0.6c0.2,0.1,0.4,0.1,0.6,0.1c-0.8-0.7-1.8-1.2-2.9-1.3C25.7,16.5,24.1,17,22.9,18z"/>
	<path class="st1" d="M11.7,19.9c-0.7-0.5-1.2-1.1-1.9-1.6C8.6,17.3,7,16.8,5.5,17c-1.1,0.1-2.1,0.6-2.9,1.3c0.2,0,0.4-0.1,0.6-0.1
		c1.6-0.5,3.4-0.3,4.8,0.6c0.6,0.3,1.1,0.8,1.6,1.2c1,0.9,2.3,1.6,3.7,1.7c0.8,0.1,1.7,0,2.5-0.5C14.4,21.3,12.9,20.8,11.7,19.9z"/>
	<path class="st1" d="M24.7,15.1c0.1,0,0.1,0,0.2,0c0,0,0,0,0,0c0,0,0,0,0,0c0.1-0.1,0.1-0.2,0.2-0.3c-0.2,0.1-0.3,0.2-0.5,0.3
		C24.6,15.1,24.6,15.1,24.7,15.1z"/>
	<path class="st1" d="M23.9,13c0,0.4,0.1,0.9,0,1.3c-0.2-0.4-0.4-0.8-0.8-1.1c0.2,0.4,0.5,0.8,0.6,1.3c-0.3-0.2-0.5-0.5-0.8-0.7
		c0.2,0.3,0.5,0.6,0.7,0.9c-0.2-0.1-0.4-0.3-0.6-0.4c0.1,0.1,0.2,0.3,0.4,0.4c0.1,0.1,0.1,0.2,0.2,0.3c-0.1-0.1-0.2-0.2-0.3-0.3
		c-0.1-0.1-0.2-0.2-0.3-0.3c0.1,0.1,0.1,0.2,0.2,0.3c0.1,0.1,0.2,0.2,0.2,0.3c0,0,0,0,0,0c0,0,0,0,0,0c0,0,0,0,0,0c0,0,0,0,0,0
		c0,0,0.1,0,0.1,0l0,0l0,0c0.3,0,0.6-0.1,0.9-0.1c0,0,0.1,0,0.1,0c0.2-0.2,0.4-0.8,0.6-1l0.7,0.8l-0.7-1c-0.3,0.2-0.5,0.4-0.8,0.7
		c0.1-0.5,0.4-0.9,0.7-1.3c-0.3,0.2-0.5,0.5-0.6,0.7c-0.1,0.1-0.1,0.2-0.2,0.4C24.1,13.9,24.1,13.4,23.9,13z M24.5,15.1
		C24.5,15.1,24.5,15.1,24.5,15.1C24.5,15.1,24.5,15.1,24.5,15.1C24.5,15.1,24.5,15.1,24.5,15.1C24.5,15.1,24.5,15.1,24.5,15.1z"/>
	<path class="st1" d="M7.2,15.1c0.1,0,0.1,0,0.2,0C7.3,15,7.1,14.9,7,14.8C7,14.9,7.1,15,7.2,15.1C7.2,15.1,7.2,15.1,7.2,15.1
		C7.2,15.1,7.2,15.1,7.2,15.1z"/>
	<path class="st1" d="M9,14.8c0,0,0.1-0.1,0.1-0.1C9,14.7,9,14.7,9,14.8c-0.2,0.1-0.4,0.3-0.6,0.4c0.1-0.1,0.1-0.2,0.2-0.3
		c0.1-0.2,0.2-0.3,0.4-0.4c-0.1,0.1-0.3,0.2-0.4,0.3c-0.1,0-0.1,0.1-0.2,0.1c0-0.1,0.1-0.2,0.1-0.2c0.2-0.3,0.4-0.5,0.6-0.7
		c-0.2,0.1-0.4,0.3-0.6,0.5c-0.1,0.1-0.1,0.1-0.2,0.2c0-0.1,0.1-0.3,0.1-0.4c0.1-0.3,0.3-0.6,0.5-0.9c-0.2,0.2-0.4,0.4-0.6,0.6
		c-0.1,0.2-0.2,0.3-0.3,0.5c0-0.4,0-0.9,0-1.3c-0.2,0.4-0.2,0.9-0.3,1.3C7.6,14,7.4,13.5,7,13.3c0.3,0.4,0.5,0.8,0.7,1.3
		c-0.3-0.2-0.5-0.5-0.8-0.7l-0.7,1l0.7-0.8c0.2,0.2,0.4,0.7,0.6,1c0.3,0,0.8,0,1.2,0.1C8.8,15.1,8.9,14.9,9,14.8z"/>
	<polygon class="st1" points="24.5,15.1 24.5,15.1 24.5,15.1 24.5,15.1 	"/>
	<path class="st1" d="M22.4,17c0.7-0.4,1.6-0.7,2.4-0.8c1.9-0.2,3.9,0.2,5.7,1.1c-0.4-0.4-1-0.7-1.5-1c-1.3-0.7-2.7-1.1-4.1-1.1l0,0
		c0,0,0,0-0.1,0c0,0,0,0,0,0c0,0,0,0,0,0c-0.1,0-0.1,0-0.2,0c0,0-0.1,0-0.1,0c0,0,0,0,0,0c0,0-0.1,0-0.1,0c-0.3,0-0.6,0-0.9,0.1l0,0
		l0,0c0,0-0.1,0-0.1,0c0,0,0,0,0,0c0,0,0,0,0,0c0,0,0,0,0,0l-0.1,0l0,0c-0.9,0.1-1.8,0.5-2.6,1c0.1,0,0.2,0,0.4,0.1c0,0,0,0,0.1,0v0
		c-0.1,0-0.2,0-0.2,0c-0.2,0-0.3,0-0.5,0c-0.1,0.1-0.3,0.1-0.4,0.2l-0.1,0c0.1,0,0.1,0,0.2,0c0,0,0,0,0.1,0v0c0,0-0.1,0-0.1,0
		c-0.1,0-0.3,0-0.4,0l-0.9,0.4L17.9,17c0,0,0.1,0,0.1,0c0.2,0,0.4,0,0.6,0c0-0.1-0.1-0.1-0.2-0.1c-0.2,0-0.4,0-0.6,0
		c-0.2,0-0.4,0-0.6-0.1c0,0,0,0,0,0c0,0,0,0,0,0c0.2-0.1,0.4,0,0.6-0.1c0.2,0,0.4,0,0.6,0c0.2,0,0.4,0,0.6,0c0,0-0.1,0-0.1,0
		c0,0,0,0,0,0c0,0,0,0,0-0.1c0,0,0,0,0.1,0c0,0,0,0,0,0c0,0,0,0-0.1,0c0,0,0,0,0,0c0,0,0,0,0.1,0c0,0,0.1,0,0.1,0c0,0,0.1,0,0.1,0
		c0.1,0,0.1,0,0.2,0c0.1,0,0.3,0,0.4,0l0.3-0.1c-0.2,0-0.5-0.1-0.8-0.1c0,0-0.1,0-0.1,0c0,0,0,0,0,0c0,0,0,0,0.1,0c0,0,0,0,0.1,0
		c0,0,0,0,0,0.1c0,0,0,0-0.1,0.1c0,0-0.1,0-0.1,0c0-0.1-0.1-0.1-0.1-0.1c-0.1,0-0.3,0-0.4,0c-0.1,0-0.2,0-0.3,0c0,0-0.1,0-0.1,0
		c0,0,0,0,0,0c0,0,0.1,0,0.1,0c0.2,0,0.5,0,0.7,0c0,0,0.1,0,0.1,0c0.1-0.1,0.1,0,0.2,0c0.1,0,0.2,0,0.3,0c0.2,0,0.5,0,0.7,0
		c0.1,0,0.2-0.1,0.3-0.1c-0.1,0-0.2,0-0.3,0c-0.4,0-0.8-0.1-1.2-0.1c0,0-0.1,0-0.1-0.1c-0.1-0.1-0.2-0.2-0.2-0.2
		c-0.4-0.3-0.9-0.5-1.4-0.7c-0.4-0.1-0.7-0.2-1.1-0.2c0-0.2,0-0.3,0-0.5c0-0.1,0-0.1,0.1-0.2c0.1-0.2,0.2-0.4,0.4-0.6
		c0.1-0.1,0.2-0.2,0.3-0.3c0,0,0.1,0,0.1,0c0,0,0,0,0,0.1c0,0.1,0,0.2,0,0.3c0,0.1,0,0.2,0.1,0.3c0,0,0,0,0,0c0,0,0,0.1,0,0.1
		c0,0,0,0,0,0c0,0,0,0,0.1,0c0.1,0.1,0.2,0.2,0.4,0.2c0-0.1-0.1-0.2-0.1-0.2c0,0,0-0.1,0-0.1c0,0,0,0,0,0c0,0-0.1,0-0.1-0.1
		c0-0.1-0.1-0.1-0.1-0.2c-0.1-0.1-0.1-0.2-0.1-0.3c0.2,0.1,0.3,0.3,0.5,0.4c0,0,0-0.1,0-0.1c0.1,0.1,0.2,0.2,0.3,0.4
		c0-0.1,0-0.1,0-0.2c0.1,0.1,0.3,0.2,0.4,0.4c0,0,0-0.1,0-0.1c0.1,0.1,0.2,0.2,0.3,0.2c0,0,0-0.1,0-0.1c0.1,0.1,0.3,0.1,0.4,0.2
		v-0.2c0.3,0,0.6,0.1,0.9,0.3c0,0,0,0,0-0.1c-0.1-0.3-0.4-0.4-0.6-0.6c0,0-0.1,0-0.1,0c0-0.1,0-0.1-0.1-0.1
		c-0.1-0.1-0.3-0.1-0.4-0.2c-0.1,0-0.1,0-0.2-0.1c0,0,0,0,0-0.1c-0.2-0.1-0.3-0.2-0.5-0.2c0-0.1,0-0.1,0-0.1c-0.1,0-0.3,0-0.4-0.1
		c-0.1,0-0.1,0-0.1-0.1c0,0-0.1,0-0.1,0c-0.1,0-0.2,0-0.3,0c0,0-0.1,0-0.1,0c0,0,0,0-0.1,0c0,0,0,0,0.1,0c0,0,0.1,0,0.1,0
		c0.2,0,0.3,0,0.5,0.1c0.1,0,0.3,0.1,0.4,0.1c0,0,0,0,0-0.1c0.2,0.1,0.4,0.1,0.6,0.2c0,0,0,0,0-0.1c0.3,0,0.7,0,1,0.1
		c0,0-0.1-0.1-0.1-0.1c0.2-0.1,0.4-0.1,0.6-0.2c0,0-0.1,0-0.1,0c0.4-0.4,0.9-0.7,1.5-0.8c0,0-0.1,0-0.1,0c-0.2,0-0.3,0-0.5-0.1
		c-0.2,0-0.5,0-0.7,0.1c-0.1,0-0.1,0-0.1-0.1c-0.1,0.1-0.3,0.1-0.4,0.2c0,0,0,0,0,0c0,0-0.1,0-0.1,0c0-0.1-0.1-0.1-0.1,0
		c-0.1,0-0.2,0.1-0.2,0.1c0,0-0.1,0-0.1,0c0,0-0.1,0-0.1,0c-0.1,0-0.2,0.1-0.3,0.2c0,0,0-0.1-0.1-0.1c-0.2,0-0.4,0.1-0.6,0.1
		c0,0-0.1,0-0.1,0c-0.2,0-0.4,0.1-0.6,0.1c-0.1,0.1-0.3,0.1-0.4,0.2c0,0,0,0,0,0c0.1-0.2,0.2-0.4,0.4-0.5c0.1-0.1,0.2-0.2,0.4-0.2
		c0.3-0.1,0.6-0.2,0.8-0.4c0,0,0,0,0,0c0,0-0.1,0-0.1,0c0,0,0,0,0,0c0.1-0.1,0.3-0.2,0.4-0.3c0.1-0.1,0.3-0.2,0.5-0.3
		c-0.1,0-0.1,0-0.2,0c0.2-0.1,0.3-0.3,0.5-0.4c0,0-0.1,0-0.1,0c0,0,0,0,0,0c0.1-0.1,0.2-0.2,0.4-0.3c0,0-0.1,0-0.1,0
		c0.1-0.1,0.1-0.2,0.2-0.3c0,0,0,0-0.1,0c0.1-0.1,0.1-0.1,0.2-0.2c0.1-0.1,0.1-0.2,0.2-0.3c0.1-0.1,0.1-0.3,0.2-0.4
		c0-0.1,0.1-0.2,0.2-0.3C20.7,8.8,20.3,9,20,9.2c0,0,0,0,0-0.1c0,0,0,0,0,0c-0.3,0.1-0.5,0.2-0.8,0.4c-0.1,0-0.1,0-0.1,0
		c0,0,0,0,0,0c-0.1,0.1-0.2,0.2-0.3,0.3c0,0,0,0,0,0c0-0.1-0.1,0-0.1,0c-0.2,0.1-0.3,0.2-0.4,0.4c0,0,0,0,0,0c0,0,0-0.1-0.1-0.1
		c-0.1,0.1-0.2,0.2-0.2,0.3c-0.1,0.1-0.1,0.2-0.2,0.3c0,0,0-0.1-0.1-0.1c0,0,0,0,0,0c-0.1,0.2-0.2,0.4-0.3,0.6
		c-0.1,0.2-0.1,0.4-0.2,0.6c0,0.1,0,0.2,0,0.3c0,0.2-0.1,0.3-0.1,0.5c0,0.1,0,0.1-0.1,0.2c0,0,0,0,0,0c0-0.3,0-0.6,0.1-0.9
		c0,0,0,0-0.1,0c0-0.2,0-0.4,0.1-0.7c0,0,0,0,0,0c0,0-0.1,0-0.1,0.1c0-0.2,0-0.4,0-0.6c0,0,0,0-0.1,0.1c0-0.2,0-0.3,0-0.4
		c0,0-0.1,0-0.1,0.1c0-0.2,0-0.3,0-0.5c0,0-0.1,0-0.1,0.1c-0.1-0.4-0.1-0.7,0-1.1c-0.2,0.4-0.4,0.8-0.4,1.2c0,0-0.1,0-0.1,0
		c0,0.1,0,0.3,0.1,0.4c0,0-0.1,0-0.1,0c0,0.2,0,0.3,0.1,0.4c0,0,0,0,0,0c0,0-0.1,0-0.1,0c0,0.2,0.1,0.4,0.2,0.5c0,0-0.1,0-0.1,0
		c0,0.1,0.1,0.2,0.2,0.3c0,0,0,0.1,0,0.1c0.1,0.2,0.2,0.4,0.3,0.6c0,0.1,0.1,0.2,0.1,0.2c-0.1-0.1-0.1-0.1-0.2-0.2
		c-0.1-0.1-0.2-0.1-0.3-0.2c-0.1,0-0.2-0.1-0.3-0.2c0,0,0-0.1-0.1-0.1c0,0,0,0,0,0c0,0,0,0,0,0.1c0,0.1,0,0.2,0.1,0.4
		c0,0.1,0.1,0.2,0.2,0.2c0.1,0.1,0.2,0.1,0.3,0.2c0.1,0.1,0.2,0.2,0.3,0.3c-0.1,0-0.2-0.1-0.3-0.1c0,0-0.1,0-0.1,0
		c-0.1,0-0.1-0.1-0.2-0.1c0,0,0,0-0.1,0c0,0,0,0,0,0c0,0,0,0.1,0,0.1c0.1,0.1,0.1,0.2,0.2,0.2c0.1,0.1,0.3,0.1,0.4,0.1
		c0,0,0.1,0,0.1,0c0,0,0,0.1-0.1,0.1c-0.2,0.2-0.4,0.5-0.6,0.8c-0.1,0.1-0.1,0.2-0.2,0.3C16.1,14.2,16,14.1,16,14
		c-0.2-0.2-0.4-0.4-0.7-0.5c0,0-0.1,0-0.1-0.1c0,0,0,0,0,0c0.1,0,0.1,0,0.2-0.1c0.1,0,0.2-0.1,0.3-0.2c0,0,0-0.1,0.1-0.1
		c0,0,0,0,0,0c0,0-0.1,0.1-0.1,0.1c-0.1,0-0.2,0.1-0.3,0.1c0,0-0.1,0-0.1,0.1c0-0.1,0.1-0.1,0.1-0.2c0.1-0.1,0.2-0.1,0.2-0.2
		c0,0,0,0,0.1-0.1c0-0.1,0.1-0.2,0.1-0.2c0-0.1,0-0.2,0-0.3c-0.1,0.1-0.1,0.2-0.2,0.3c0,0-0.1,0.1-0.1,0.1c-0.1,0.1-0.1,0.2-0.2,0.2
		c0,0,0-0.1,0-0.1c0.1-0.2,0.1-0.4,0.2-0.6c0,0,0,0,0-0.1c0.1-0.1,0.1-0.2,0.1-0.3h-0.1c0.1-0.1,0.1-0.3,0.1-0.4c0,0-0.1,0-0.1,0
		c0.1-0.1,0.1-0.2,0-0.4c0,0,0,0-0.1,0c0-0.1,0-0.2,0-0.3c0,0,0,0-0.1,0c0-0.4-0.3-0.6-0.5-0.9c0.1,0.3,0.1,0.6,0.1,0.9c0,0,0,0,0,0
		c0,0,0,0,0,0c0,0.1,0.1,0.2,0.1,0.4c0,0-0.1,0-0.1,0c0,0.1,0,0.2,0,0.3c0,0-0.1,0-0.1,0c0,0.2,0,0.3,0.1,0.5c0,0-0.1,0-0.1,0
		c0,0,0,0,0,0c0.1,0.1,0.1,0.2,0.1,0.4c0,0,0,0.1,0,0.1h0c0.1,0.2,0.2,0.4,0.2,0.7c0,0,0,0,0,0c-0.1-0.2-0.2-0.4-0.2-0.6
		c-0.1-0.2-0.2-0.4-0.4-0.6c-0.1-0.1-0.2-0.2-0.2-0.3c0,0,0,0.1,0,0.1c-0.1-0.2-0.2-0.3-0.4-0.4c0,0,0,0.1,0,0.1
		c-0.1-0.1-0.3-0.2-0.4-0.3c0,0,0,0,0,0.1c-0.1,0-0.2-0.1-0.2-0.2V11c0,0,0,0-0.1,0c-0.2,0-0.4-0.1-0.6-0.1c0,0-0.1,0-0.1,0
		c0,0,0,0,0,0c-0.3-0.1-0.6-0.3-0.9-0.4c0,0,0,0,0,0c0.1,0.1,0.2,0.2,0.3,0.3c0.1,0.1,0.2,0.3,0.3,0.3c0,0,0,0,0,0c0,0,0,0,0,0
		c0.1,0.1,0.2,0.1,0.2,0.2c0,0,0,0,0,0c0,0,0,0,0,0c0.1,0.1,0.2,0.1,0.3,0.2c0,0-0.1,0-0.1,0c0.2,0.1,0.3,0.1,0.4,0.2
		c0,0-0.1,0-0.1,0c0,0,0,0,0,0c0.3,0.1,0.5,0.2,0.8,0.3c0,0-0.1,0-0.1,0c0,0,0,0,0,0c0.2,0.1,0.5,0.2,0.7,0.2c0.1,0,0.2,0,0.2,0.1
		c0.2,0.1,0.3,0.2,0.4,0.4c0,0,0,0,0,0c-0.2-0.1-0.4-0.1-0.6-0.1c-0.1,0-0.2,0-0.3,0c-0.1,0-0.2,0-0.3,0c-0.1,0-0.1,0-0.2,0
		c-0.1,0-0.1,0-0.1,0.1c-0.1,0-0.2,0-0.3-0.1c0,0-0.1,0-0.1,0c0,0.1-0.1,0-0.1,0c0,0-0.1,0-0.1,0c-0.1,0-0.1,0-0.2,0.1
		c-0.1,0-0.2,0-0.4-0.1c0,0.1,0,0.1-0.1,0.1c-0.3,0-0.6,0-0.9,0.2c0,0,0,0-0.1,0c0.5,0,0.9,0.2,1.3,0.4c0,0,0,0,0,0.1
		c0.2,0,0.3,0,0.5,0.1c0,0,0,0,0,0.1c0.3-0.1,0.5-0.1,0.7-0.2c0,0,0,0,0,0.1c0.1-0.1,0.2-0.1,0.4-0.2c0,0,0.1,0,0.1,0c0,0,0,0,0,0
		c0.1,0,0.1-0.1,0.2-0.1c0.1-0.1,0.3-0.1,0.4-0.2c0,0,0.1,0,0.1,0c0,0,0,0,0,0c0,0,0,0-0.1,0c-0.1,0-0.2,0.1-0.3,0.1
		c0,0-0.1,0,0,0.1c-0.1,0-0.2,0.1-0.3,0.1c0,0-0.1,0-0.1,0c0,0.1,0,0.1-0.1,0.1c-0.1,0.1-0.2,0.1-0.3,0.2c0,0-0.1,0.1,0,0.1
		c0,0,0,0-0.1,0c-0.1,0.1-0.3,0.2-0.4,0.3c0,0,0,0,0,0c0,0.1,0,0.1,0,0.1c-0.1,0.1-0.2,0.2-0.3,0.3c0,0.1-0.1,0.1-0.1,0.2
		c0,0,0,0,0,0c0.2-0.2,0.4-0.3,0.7-0.4c0,0.1,0,0.1,0,0.1c0.1-0.1,0.2-0.2,0.3-0.2c0,0,0,0.1,0.1,0.1c0.1-0.1,0.1-0.1,0.2-0.2
		c0,0,0,0.1,0.1,0.1c0.1-0.1,0.2-0.2,0.3-0.3c0,0,0,0.1,0,0.1c0.1-0.1,0.1-0.2,0.2-0.3c0,0,0,0,0,0.1c0.1-0.2,0.2-0.3,0.3-0.4
		c0,0,0,0,0,0c0,0.2-0.1,0.3-0.1,0.4c0,0,0,0,0,0c0,0,0,0.1,0,0.1c0,0.1,0,0.1,0,0.2c0.2,0,0.2-0.1,0.3-0.2c0,0,0,0,0,0
		c0-0.1,0-0.2,0.1-0.3c0-0.1,0-0.2,0-0.3c0,0,0,0,0-0.1c0,0,0.1,0,0.1,0c0.2,0.2,0.5,0.4,0.7,0.7c0.1,0.1,0.1,0.1,0.1,0.2
		c0,0.1,0,0.1,0,0.2c0,0.1,0,0.1,0,0.2H16h0c0,0,0,0-0.1,0c-0.4,0-0.8,0.1-1.2,0.2c-0.5,0.1-1,0.3-1.4,0.7c-0.1,0.1-0.2,0.2-0.2,0.2
		c0,0-0.1,0-0.1,0.1c-0.4,0-0.8,0.1-1.2,0.1c-0.1,0-0.2,0-0.3,0c0.1,0,0.2,0.1,0.3,0.1c0.2,0,0.5,0,0.7,0c0.1,0,0.2,0,0.3,0
		c0.1,0,0.1,0,0.2,0c0,0,0.1,0,0.1,0c0.2,0,0.5,0,0.7,0c0,0,0.1,0,0.1,0c0,0,0,0,0,0c0,0-0.1,0-0.1,0c-0.1,0-0.2,0-0.3,0
		c-0.1,0-0.3,0-0.4,0c-0.1,0-0.1,0.1-0.1,0.1c0,0,0,0-0.1,0c0,0-0.1,0-0.1-0.1c0,0,0,0,0-0.1c0,0,0,0,0.1,0c0,0,0,0,0.1,0
		c0,0,0,0,0,0c0,0-0.1,0-0.1,0c-0.2,0-0.5,0-0.8,0.1l0.3,0.1c0.1,0,0.3,0,0.4,0c0.1,0,0.1,0,0.2,0c0,0,0.1,0,0.1,0c0,0,0,0,0.1,0
		c0,0,0,0,0.1,0c0,0,0,0,0,0c0,0,0,0-0.1,0c0,0,0,0,0,0c0,0,0,0,0.1,0c0,0,0,0,0,0.1c0,0,0,0,0,0c0,0-0.1,0-0.1,0c0.2,0,0.4,0,0.6,0
		c0.2,0,0.4,0,0.6,0c0.2,0,0.4,0,0.6,0.1c0,0,0,0,0,0c0,0,0,0,0,0c-0.2,0-0.4,0-0.6,0.1c-0.2,0-0.4,0-0.6,0c-0.1,0-0.1,0.1-0.2,0.1
		c0.2,0,0.4,0,0.6,0c0,0,0.1,0,0.1,0l-0.9,0.1l-0.9-0.4c-0.1,0-0.3,0-0.4,0c0,0-0.1,0-0.1,0v0c0,0,0,0,0.1,0c0.1,0,0.1,0,0.2,0
		l-0.1,0c-0.1-0.1-0.3-0.1-0.4-0.2c-0.2,0-0.3,0-0.5,0c-0.1,0-0.2,0-0.2,0v0c0,0,0,0,0.1,0c0.1,0,0.2,0,0.4-0.1
		c-0.7-0.4-1.5-0.7-2.3-0.9c0,0,0,0,0,0c-0.1,0-0.2,0-0.3-0.1c-0.5-0.1-0.9-0.1-1.2-0.1c0,0,0,0,0,0c-0.1,0-0.2,0-0.2,0c0,0,0,0,0,0
		c0,0,0,0,0,0c0,0,0,0,0,0c0,0,0,0,0,0l0,0c-1.4,0-2.8,0.5-4.1,1.1c-0.5,0.3-1,0.6-1.5,1c1.8-0.8,3.7-1.3,5.7-1.1
		C8,16.3,8.9,16.6,9.6,17c1.7,1,3.2,2.2,5.1,3c0.4,0.2,0.8,0.3,1.3,0.4v0c0,0,0,0,0,0c0,0,0,0,0,0v0c0.4-0.1,0.9-0.2,1.3-0.4
		C19.1,19.3,20.7,18,22.4,17z"/>
	<path class="st1" d="M19,16.5c0,0,0.1,0.1,0.1,0.1c0,0,0,0,0,0C19,16.6,19,16.6,19,16.5C18.9,16.5,19,16.5,19,16.5z"/>
	<path class="st1" d="M19.3,14C19.3,14,19.3,14,19.3,14c-0.5-0.2-1-0.3-1.5-0.6C18.3,13.5,18.8,13.8,19.3,14z"/>
	<path class="st1" d="M19.3,12.6c0.4,0,0.8-0.1,1.1-0.2c-0.3,0.2-1.8,0.4-2.3,0.3C18.5,12.6,18.9,12.6,19.3,12.6z"/>
	<path class="st1" d="M19.9,9.7c-0.8,0.6-1.5,1.3-2.2,2C17.9,11.2,19.4,9.8,19.9,9.7z"/>
	<path class="st1" d="M17.5,14c-0.1-0.1-0.2-0.3-0.2-0.5C17.3,13.6,17.4,13.8,17.5,14z"/>
	<path class="st1" d="M16.5,9.9c0.1,0.7,0.2,1.3,0.3,1.9C16.6,11.2,16.4,10.6,16.5,9.9z"/>
	<path class="st1" d="M16.5,12.4c-0.1-0.1-0.2-0.1-0.2-0.2c0,0,0,0,0,0C16.3,12.2,16.4,12.3,16.5,12.4
		C16.5,12.4,16.5,12.4,16.5,12.4z"/>
	<path class="st1" d="M13.5,11.8c-0.3-0.2-0.7-0.4-1-0.6c0.3,0,1.6,0.8,2,1.2C14.1,12.3,13.8,12,13.5,11.8z"/>
	<path class="st1" d="M12.4,13.4c0.2,0,0.4,0,0.6,0c0.2,0,0.4,0,0.6,0c0.2,0,0.4-0.1,0.6-0.1C13.7,13.5,12.8,13.5,12.4,13.4z"/>
	<path class="st1" d="M13.6,14.5C13.6,14.5,13.6,14.5,13.6,14.5c0.3-0.2,0.6-0.5,0.9-0.7C14.3,14.1,13.9,14.3,13.6,14.5z"/>
	<path class="st1" d="M15,14.2C15,14.2,15,14.1,15,14.2c0-0.1,0-0.1,0-0.2c0,0,0,0,0,0C15,14,15,14.1,15,14.2z"/>
	<path class="st1" d="M15.2,12.5c0-0.5,0-1,0-1.5C15.2,11.5,15.2,12,15.2,12.5z"/>
	<path class="st1" d="M12.9,16.7C12.9,16.7,12.9,16.7,12.9,16.7c0-0.1,0.1-0.1,0.1-0.2c0,0,0,0,0,0C13,16.6,13,16.6,12.9,16.7z"/>
</g>
</svg>
